<svg width="166" height="37" viewBox="0 0 166 37" fill="none" xmlns="http://www.w3.org/2000/svg">
<path d="M6.81836 24.3564L15.5834 32.1594L14.9533 18.8037L6.81836 24.3564Z" fill="url(#paint0_linear_402_2075)"/>
<path d="M38.5259 23.6365L40.2699 33.3691L29.0576 24.0809L38.5259 23.6365Z" fill="url(#paint1_linear_402_2075)"/>
<path d="M38.8855 23.6139L32.6465 23.9684L35.8645 16.8742L39.2175 9.65063L42.036 17.0373L44.4045 23.2595L38.8855 23.6139Z" fill="url(#paint2_linear_402_2075)"/>
<path d="M45.7043 13.3862L44.4048 23.2595L39.2178 9.65063L45.7043 13.3862Z" fill="url(#paint3_linear_402_2075)"/>
<path d="M39.2178 9.65049L33.0575 23.0625L26.9028 5.44238L39.2178 9.65049Z" fill="url(#paint4_linear_402_2075)"/>
<path d="M30.7338 6.75332L26.9026 5.44251L26.25 3.68726L30.7338 6.75332Z" fill="#D31F23"/>
<path d="M21.9912 28.3677L37.7154 36.3958L26.25 3.68726L21.9912 28.3677Z" fill="#D31F23"/>
<path d="M14.6777 10.6689L21.9913 28.3677L26.2501 3.68726L14.6777 10.6689Z" fill="#D31F23"/>
<path d="M15.9998 0.604248L14.6777 10.6688L26.2501 3.68721L15.9998 0.604248Z" fill="#D31F23"/>
<path d="M15.9999 0.604248L2.19971 6.43259L15.2629 6.23007L15.9999 0.604248Z" fill="url(#paint5_linear_402_2075)"/>
<path d="M6.04776 19.0795L2.19969 6.43262L0 24.3565L6.04776 19.0795Z" fill="#D31F23"/>
<path d="M0 24.3565L12.3149 34.4154L10.3065 15.3945L0 24.3565Z" fill="#D31F23"/>
<path d="M47.9152 19.8502L44.3091 23.2594L45.153 16.8123L47.9152 19.8502Z" fill="url(#paint6_linear_402_2075)"/>
<path d="M43.7519 8.96416L42.413 10.7813L41.1641 8.80664L43.7519 8.96416Z" fill="#D31F23"/>
<path d="M43.752 8.96411L43.4764 12.1033L42.4131 10.7813L43.752 8.96411Z" fill="#D31F23"/>
<path d="M41.1641 8.80664L42.3961 10.7588L41.316 10.8601L39.9883 10.095L41.1641 8.80664Z" fill="#D31F23"/>
<path d="M43.4767 12.1034L41.3164 10.8601L42.3966 10.7588L43.4767 12.1034Z" fill="#D31F23"/>
<path d="M47.6508 23.1188L44.3091 23.2595L47.9096 19.7883L47.6508 23.1188Z" fill="url(#paint7_linear_402_2075)"/>
<path d="M2.19971 6.4326L7.58925 23.9683L18.419 6.05005L2.19971 6.4326Z" fill="url(#paint8_linear_402_2075)"/>
<path d="M45.5244 14.7476L45.035 17.7293L42.9365 16.4522L45.5244 14.7476Z" fill="#D31F23"/>
<path d="M42.7842 18.9838L42.9361 16.4521L45.0345 17.7292L42.7842 18.9838Z" fill="#D31F23"/>
<path d="M20.0562 23.6758L18.4191 6.05005L7.58936 23.9683L20.0562 23.6758Z" fill="url(#paint9_linear_402_2075)"/>
<path d="M89.2213 29.7068C89.2213 29.7068 89.2213 29.7406 89.2156 29.7462C89.2156 29.7574 89.2044 29.7574 89.1875 29.7574C89.165 29.7574 89.1481 29.7518 89.1425 29.7349C89.1369 29.7237 89.1256 29.6956 89.1088 29.6674L87.1678 26.0331C87.106 25.9094 87.0216 25.8194 86.9259 25.7631C86.8247 25.7069 86.7065 25.6787 86.5659 25.6787C86.4534 25.6787 86.3465 25.7068 86.2508 25.7518C86.1552 25.8025 86.0764 25.8756 86.0258 25.9769C85.9695 26.0782 85.9414 26.1963 85.9414 26.3369V30.3763H86.6109V26.4607C86.6109 26.4607 86.6109 26.4101 86.6221 26.3988C86.6334 26.3876 86.6446 26.3763 86.6615 26.3763C86.6784 26.3763 86.6953 26.382 86.7009 26.3988C86.7065 26.4101 86.7178 26.4326 86.7234 26.4607L88.6587 30.1006C88.7262 30.2244 88.8162 30.3144 88.9231 30.3707C89.03 30.4269 89.1481 30.455 89.2775 30.455C89.3844 30.455 89.4857 30.4269 89.5757 30.3763C89.6713 30.3256 89.7445 30.2469 89.8007 30.1512C89.857 30.0556 89.8851 29.9375 89.8851 29.7968V25.7518H89.2156V29.6899L89.2213 29.7068Z" fill="#1C1C1C"/>
<path d="M94.3404 28.4017H96.6864V27.7603H94.3404V26.4158H96.8214V25.7744H94.2842C94.0479 25.7744 93.8791 25.8307 93.7835 25.9432C93.6878 26.0557 93.6372 26.2132 93.6372 26.4101V29.7575C93.6372 29.9488 93.6878 30.1063 93.7835 30.2188C93.8791 30.3313 94.0479 30.3932 94.2842 30.3932H96.8664V29.7519H94.3348V28.4017H94.3404Z" fill="#1C1C1C"/>
<path d="M101.244 25.7744H99.8315V26.4214H101.244V30.3932H101.947V26.4214H103.365V25.7744H101.947H101.244Z" fill="#1C1C1C"/>
<path d="M110.92 29.6392C110.909 29.6842 110.897 29.7236 110.881 29.7461C110.864 29.7742 110.841 29.7855 110.813 29.7855C110.779 29.7855 110.757 29.7742 110.74 29.7461C110.723 29.7236 110.706 29.6842 110.695 29.6392L109.902 26.3425C109.857 26.1287 109.778 25.9768 109.665 25.8755C109.553 25.7742 109.418 25.7292 109.255 25.7292C109.092 25.7292 108.962 25.7799 108.85 25.8755C108.737 25.9768 108.658 26.1343 108.613 26.3481L107.848 29.6336C107.837 29.6898 107.826 29.7292 107.803 29.7517C107.781 29.7742 107.758 29.7855 107.73 29.7855C107.702 29.7855 107.679 29.7742 107.663 29.7461C107.646 29.7236 107.629 29.6842 107.618 29.6336L106.813 25.7686H106.11L106.999 29.8473C107.044 30.0499 107.128 30.2074 107.258 30.3143C107.381 30.4212 107.539 30.4774 107.713 30.4774C107.876 30.4774 108.023 30.4268 108.152 30.3199C108.276 30.213 108.36 30.0668 108.405 29.8698L109.182 26.4944C109.193 26.4606 109.198 26.4381 109.215 26.4268C109.227 26.4156 109.238 26.41 109.255 26.41C109.272 26.41 109.288 26.4156 109.3 26.4268C109.311 26.4381 109.317 26.4606 109.322 26.4944L110.121 29.8305C110.177 30.0442 110.267 30.2018 110.385 30.3087C110.509 30.4156 110.661 30.4718 110.841 30.4718C111.021 30.4718 111.184 30.4156 111.297 30.2974C111.415 30.1793 111.494 30.0161 111.533 29.8136L112.355 25.7742H111.651L110.909 29.6392H110.92Z" fill="#1C1C1C"/>
<path d="M119.325 26.3875C119.111 26.1737 118.858 26.005 118.571 25.8812C118.284 25.7574 117.975 25.7012 117.643 25.7012C117.311 25.7012 116.996 25.7631 116.709 25.8812C116.422 26.005 116.169 26.1737 115.955 26.3875C115.741 26.6013 115.572 26.8545 115.449 27.1414C115.325 27.4283 115.269 27.7377 115.269 28.0753C115.269 28.4128 115.33 28.7335 115.449 29.0204C115.572 29.3129 115.741 29.5661 115.955 29.7799C116.169 29.9937 116.422 30.1624 116.709 30.2862C116.996 30.41 117.305 30.4662 117.643 30.4662C117.98 30.4662 118.29 30.4044 118.571 30.2862C118.858 30.1624 119.105 29.9937 119.325 29.7799C119.539 29.5661 119.707 29.3129 119.825 29.0204C119.944 28.7279 120.005 28.4128 120.005 28.0753C120.005 27.7377 119.944 27.4283 119.825 27.1414C119.707 26.8545 119.539 26.6013 119.325 26.3875ZM119.162 28.756C119.077 28.9641 118.959 29.1498 118.807 29.3017C118.655 29.4592 118.481 29.583 118.278 29.673C118.076 29.763 117.868 29.808 117.643 29.808C117.418 29.808 117.198 29.763 116.996 29.673C116.793 29.583 116.619 29.4592 116.467 29.3017C116.315 29.1442 116.202 28.9641 116.118 28.756C116.034 28.5478 115.989 28.3228 115.989 28.0753C115.989 27.8277 116.034 27.614 116.118 27.4058C116.202 27.1976 116.321 27.0176 116.467 26.8601C116.619 26.7026 116.793 26.5844 116.996 26.4944C117.198 26.41 117.412 26.365 117.643 26.365C117.873 26.365 118.087 26.41 118.284 26.4944C118.481 26.5844 118.655 26.7026 118.807 26.8601C118.959 27.0176 119.077 27.1976 119.162 27.4058C119.246 27.614 119.285 27.8334 119.285 28.0753C119.285 28.3172 119.246 28.5478 119.162 28.756Z" fill="#1C1C1C"/>
<path d="M126.245 28.8799C126.127 28.6998 125.98 28.5592 125.817 28.4636C125.8 28.4523 125.783 28.4467 125.767 28.441C125.896 28.4129 126.014 28.3735 126.127 28.3173C126.34 28.2048 126.509 28.0529 126.633 27.856C126.757 27.6591 126.813 27.4284 126.813 27.1752C126.813 26.8602 126.734 26.5958 126.582 26.3876C126.43 26.1795 126.217 26.0276 125.958 25.9263C125.693 25.825 125.401 25.7744 125.075 25.7744H123.471V30.3932H124.163V28.7111H124.743C124.956 28.7111 125.136 28.7505 125.271 28.8236C125.406 28.8968 125.525 29.0036 125.615 29.1387C125.705 29.2737 125.8 29.4312 125.896 29.6112L126.284 30.3876H127.044L126.622 29.5381C126.498 29.2737 126.374 29.0543 126.256 28.8742L126.245 28.8799ZM124.163 28.081V26.4214H125.08C125.266 26.4214 125.44 26.4495 125.592 26.5058C125.744 26.562 125.868 26.652 125.958 26.7702C126.048 26.8883 126.093 27.0402 126.093 27.2371C126.093 27.434 126.048 27.5747 125.963 27.7041C125.873 27.8278 125.755 27.9235 125.598 27.991C125.44 28.0585 125.266 28.0866 125.069 28.0866H124.169L124.163 28.081Z" fill="#1C1C1C"/>
<path d="M132.85 28.6436C132.76 28.5311 132.686 28.4298 132.641 28.3398C132.591 28.2554 132.568 28.1654 132.568 28.0754C132.568 27.9854 132.591 27.901 132.641 27.8053C132.692 27.7153 132.76 27.6084 132.85 27.4959L134.295 25.7744H133.491L132.203 27.2934C132.09 27.434 132.006 27.5691 131.949 27.6985C131.938 27.721 131.938 27.7435 131.927 27.766H131.257V25.7744H130.554V30.3932H131.257V28.4129H131.933C131.933 28.4129 131.944 28.4636 131.955 28.4861C132.011 28.6211 132.09 28.7561 132.203 28.8911L133.48 30.3876H134.346L132.85 28.638V28.6436Z" fill="#1C1C1C"/>
<path d="M64.9796 17.8868C64.614 17.1217 64.2595 16.4972 63.9276 16.0078C63.6294 15.5802 63.275 15.2539 62.8643 15.0233C63.1906 14.9389 63.4944 14.8207 63.7701 14.6632C64.3833 14.3257 64.8671 13.8531 65.2159 13.2568C65.5647 12.6604 65.7335 11.9797 65.7335 11.1977C65.7335 10.2132 65.4916 9.39744 65.0078 8.75047C64.5239 8.09787 63.8657 7.61405 63.0331 7.29338C62.1949 6.97271 61.261 6.80957 60.2258 6.80957H54.915V20.6041H57.8686L57.8855 16.1991H59.0556C59.5732 16.1991 60.0008 16.2722 60.3383 16.4241C60.6703 16.576 60.9515 16.7898 61.1878 17.0767C61.4241 17.3692 61.6379 17.7237 61.8404 18.1456L63.0725 20.6041H66.313L64.9796 17.8756V17.8868ZM62.3411 12.6098C62.1273 12.9192 61.8404 13.1499 61.4804 13.3074C61.1147 13.4649 60.6984 13.5437 60.2202 13.5437H57.8911L57.9024 9.58873H60.2596C60.7096 9.58873 61.1203 9.65622 61.4804 9.78562C61.8404 9.91501 62.1273 10.1176 62.3411 10.3988C62.5549 10.6801 62.6618 11.0514 62.6618 11.5184C62.6618 11.9403 62.5549 12.306 62.3411 12.6154V12.6098Z" fill="#D31F23"/>
<path d="M71.4548 15.057H77.9752V12.3735H71.4548V9.50431H78.4027V6.8208H71.106C70.1609 6.8208 69.4858 7.05145 69.0751 7.5184C68.6644 7.98534 68.4619 8.60981 68.4619 9.40305V18.0556C68.4619 18.8319 68.6644 19.4564 69.0751 19.9234C69.4858 20.3903 70.1609 20.6209 71.106 20.6209H78.5265V17.9374H71.4548V15.0683V15.057Z" fill="#D31F23"/>
<path d="M92.7038 10.0894C92.0793 9.05988 91.213 8.25539 90.0991 7.68155C88.9851 7.10772 87.6856 6.8208 86.1947 6.8208H81.0527V20.6153H86.1385C87.2299 20.6153 88.2313 20.4522 89.1427 20.1315C90.0541 19.8108 90.8417 19.3495 91.5224 18.7476C92.1975 18.1456 92.7207 17.4199 93.0864 16.5704C93.4577 15.7265 93.6433 14.7757 93.6433 13.7237C93.6433 12.3285 93.3339 11.1133 92.7094 10.0838L92.7038 10.0894ZM90.2453 15.4677C90.0315 15.9853 89.7277 16.4241 89.3227 16.7898C88.9176 17.1498 88.4507 17.4311 87.9162 17.628C87.3818 17.8249 86.7911 17.9206 86.1329 17.9206H84.04V9.57745H86.1947C87.0724 9.57745 87.8319 9.75186 88.4901 10.1007C89.1427 10.4495 89.6546 10.9276 90.0147 11.5465C90.3803 12.1597 90.5604 12.8854 90.5604 13.7237C90.5604 14.365 90.4535 14.9445 90.2397 15.4677H90.2453Z" fill="#D31F23"/>
<path d="M106.397 9.11053C105.885 8.37355 105.159 7.80535 104.22 7.41154C103.286 7.01211 102.161 6.81519 100.85 6.81519H95.9893V20.6097L98.9822 20.5872V16.9585H101.013C102.285 16.9585 103.382 16.7616 104.293 16.3622C105.21 15.9684 105.913 15.389 106.414 14.6295C106.915 13.87 107.157 12.9417 107.157 11.8334C107.157 10.7251 106.903 9.84188 106.391 9.1049L106.397 9.11053ZM103.714 13.1667C103.46 13.5155 103.1 13.7743 102.639 13.9431C102.178 14.1175 101.609 14.2019 100.934 14.2019H98.9878V9.58873H100.934C101.593 9.58873 102.155 9.67312 102.622 9.83627C103.095 9.99942 103.46 10.2469 103.708 10.5845C103.961 10.9164 104.09 11.3383 104.09 11.8447C104.09 12.3791 103.961 12.8179 103.708 13.1667H103.714Z" fill="#1C1C1C"/>
<path d="M116.321 7.09649C115.77 6.73643 115.156 6.55078 114.487 6.55078C113.817 6.55078 113.244 6.73081 112.681 7.09649C112.118 7.45654 111.725 8.0135 111.494 8.76736L107.843 20.6153H110.898L114.054 9.65062C114.138 9.37495 114.284 9.23994 114.504 9.23994C114.723 9.23994 114.875 9.37495 114.954 9.65062L118.093 20.6153H121.148L117.497 8.76736C117.266 8.0135 116.872 7.45654 116.315 7.09649H116.321Z" fill="#1C1C1C"/>
<path d="M132.608 16.9642L127.156 7.61412C126.937 7.23156 126.65 6.95589 126.295 6.78149C125.941 6.61271 125.536 6.52271 125.086 6.52271C124.715 6.52271 124.366 6.60709 124.039 6.78149C123.713 6.95026 123.449 7.20343 123.252 7.52973C123.055 7.85603 122.954 8.24983 122.954 8.6999V20.6098H125.8V10.4045L131.252 19.8109C131.471 20.1822 131.764 20.4522 132.135 20.621C132.506 20.7898 132.906 20.8798 133.345 20.8798C133.699 20.8798 134.036 20.7954 134.357 20.6323C134.678 20.4691 134.937 20.2272 135.134 19.9065C135.33 19.5859 135.432 19.1921 135.432 18.7251V6.81524H132.602V16.9642H132.608Z" fill="#1C1C1C"/>
<path d="M150.244 10.0894C149.62 9.05988 148.753 8.25539 147.64 7.68155C146.526 7.10772 145.226 6.8208 143.735 6.8208H138.593V20.6153H143.679C144.77 20.6153 145.772 20.4522 146.683 20.1315C147.595 19.8108 148.382 19.3495 149.063 18.7476C149.738 18.1456 150.261 17.4199 150.627 16.5704C150.998 15.7265 151.184 14.7757 151.184 13.7237C151.184 12.3285 150.874 11.1133 150.25 10.0838L150.244 10.0894ZM147.786 15.4677C147.572 15.9853 147.268 16.4241 146.863 16.7898C146.458 17.1498 145.991 17.4311 145.457 17.628C144.922 17.8249 144.332 17.9206 143.673 17.9206H141.581V9.57745H143.735C144.613 9.57745 145.372 9.75186 146.031 10.1007C146.683 10.4495 147.195 10.9276 147.555 11.5465C147.921 12.1597 148.101 12.8854 148.101 13.7237C148.101 14.365 147.994 14.9445 147.78 15.4677H147.786Z" fill="#1C1C1C"/>
<path d="M161.716 8.76736C161.485 8.0135 161.091 7.45654 160.534 7.09649C159.983 6.73643 159.37 6.55078 158.7 6.55078C158.031 6.55078 157.457 6.73081 156.894 7.09649C156.332 7.45654 155.938 8.0135 155.707 8.76736L152.056 20.6153H155.111L158.267 9.65062C158.351 9.37495 158.498 9.23994 158.717 9.23994C158.937 9.23994 159.088 9.37495 159.167 9.65062L162.306 20.6153H165.361L161.71 8.76736H161.716Z" fill="#1C1C1C"/>
<defs>
<linearGradient id="paint0_linear_402_2075" x1="6.81836" y1="25.4816" x2="15.5834" y2="25.4816" gradientUnits="userSpaceOnUse">
<stop stop-color="#EA2227"/>
<stop offset="1" stop-color="#A31E22"/>
</linearGradient>
<linearGradient id="paint1_linear_402_2075" x1="41.907" y1="32.0583" x2="27.6343" y2="17.6337" gradientUnits="userSpaceOnUse">
<stop stop-color="#EA2227"/>
<stop offset="1" stop-color="#A31E22"/>
</linearGradient>
<linearGradient id="paint2_linear_402_2075" x1="42.1485" y1="28.1596" x2="33.9404" y2="13.1724" gradientUnits="userSpaceOnUse">
<stop stop-color="#EA2227"/>
<stop offset="1" stop-color="#F6A9AB"/>
</linearGradient>
<linearGradient id="paint3_linear_402_2075" x1="39.2178" y1="16.4523" x2="45.7043" y2="16.4523" gradientUnits="userSpaceOnUse">
<stop stop-color="#EA2227"/>
<stop offset="1" stop-color="#F6A9AB"/>
</linearGradient>
<linearGradient id="paint4_linear_402_2075" x1="23.9324" y1="17.1328" x2="39.5834" y2="9.68426" gradientUnits="userSpaceOnUse">
<stop stop-color="#EA2227"/>
<stop offset="1" stop-color="#F6A9AB"/>
</linearGradient>
<linearGradient id="paint5_linear_402_2075" x1="14.1771" y1="0.272324" x2="4.95075" y2="10.5395" gradientUnits="userSpaceOnUse">
<stop stop-color="#EA2227"/>
<stop offset="1" stop-color="#F6A9AB"/>
</linearGradient>
<linearGradient id="paint6_linear_402_2075" x1="44.3091" y1="20.0359" x2="47.9152" y2="20.0359" gradientUnits="userSpaceOnUse">
<stop stop-color="#EA2227"/>
<stop offset="1" stop-color="#F6A9AB"/>
</linearGradient>
<linearGradient id="paint7_linear_402_2075" x1="44.3091" y1="21.5211" x2="47.9096" y2="21.5211" gradientUnits="userSpaceOnUse">
<stop stop-color="#EA2227"/>
<stop offset="1" stop-color="#F6A9AB"/>
</linearGradient>
<linearGradient id="paint8_linear_402_2075" x1="17.6595" y1="8.40164" x2="0.950773" y2="17.3017" gradientUnits="userSpaceOnUse">
<stop stop-color="#EA2227"/>
<stop offset="1" stop-color="#F6A9AB"/>
</linearGradient>
<linearGradient id="paint9_linear_402_2075" x1="25.0857" y1="15.2033" x2="3.46" y2="14.8601" gradientUnits="userSpaceOnUse">
<stop stop-color="#EA2227"/>
<stop offset="1" stop-color="#F6A9AB"/>
</linearGradient>
</defs>
</svg>
