<svg width="664" height="160" viewBox="0 0 664 160" fill="none" xmlns="http://www.w3.org/2000/svg">
<path d="M663.061 149.061C663.646 148.475 663.646 147.525 663.061 146.939L653.515 137.393C652.929 136.808 651.979 136.808 651.393 137.393C650.808 137.979 650.808 138.929 651.393 139.515L659.879 148L651.393 156.485C650.808 157.071 650.808 158.021 651.393 158.607C651.979 159.192 652.929 159.192 653.515 158.607L663.061 149.061ZM662 148V146.5H150V148V149.5H662V148ZM150 148V146.5C69.0902 146.5 3.49994 80.9097 3.49994 0H1.99994H0.499939C0.499939 82.5666 67.4334 149.5 150 149.5V148Z" fill="url(#paint0_linear_402_2303)"/>
<defs>
<linearGradient id="paint0_linear_402_2303" x1="662" y1="74" x2="2" y2="74" gradientUnits="userSpaceOnUse">
<stop stop-color="#1C1C1C"/>
<stop offset="1" stop-color="#FAFAFA"/>
</linearGradient>
</defs>
</svg>
