<svg width="590" height="160" viewBox="0 0 590 160" fill="none" xmlns="http://www.w3.org/2000/svg">
<g filter="url(#filter0_d_402_2301)">
<path d="M572.939 151.311C573.525 151.896 574.475 151.896 575.061 151.311L584.607 141.765C585.192 141.179 585.192 140.229 584.607 139.643C584.021 139.058 583.071 139.058 582.485 139.643L574 148.129L565.515 139.643C564.929 139.058 563.979 139.058 563.393 139.643C562.808 140.229 562.808 141.179 563.393 141.765L572.939 151.311ZM4 2.25V3.75H426V2.25V0.75H4V2.25ZM426 2.25V3.75C506.91 3.75 572.5 69.3403 572.5 150.25H574H575.5C575.5 67.6834 508.567 0.75 426 0.75V2.25Z" fill="url(#paint0_linear_402_2301)"/>
</g>
<defs>
<filter id="filter0_d_402_2301" x="0" y="0.75" width="589.046" height="159" filterUnits="userSpaceOnUse" color-interpolation-filters="sRGB">
<feFlood flood-opacity="0" result="BackgroundImageFix"/>
<feColorMatrix in="SourceAlpha" type="matrix" values="0 0 0 0 0 0 0 0 0 0 0 0 0 0 0 0 0 0 127 0" result="hardAlpha"/>
<feOffset dy="4"/>
<feGaussianBlur stdDeviation="2"/>
<feComposite in2="hardAlpha" operator="out"/>
<feColorMatrix type="matrix" values="0 0 0 0 0 0 0 0 0 0 0 0 0 0 0 0 0 0 0.25 0"/>
<feBlend mode="normal" in2="BackgroundImageFix" result="effect1_dropShadow_402_2301"/>
<feBlend mode="normal" in="SourceGraphic" in2="effect1_dropShadow_402_2301" result="shape"/>
</filter>
<linearGradient id="paint0_linear_402_2301" x1="4" y1="76.25" x2="574" y2="76.25" gradientUnits="userSpaceOnUse">
<stop stop-color="#FAFAFA"/>
<stop offset="1" stop-color="#1C1C1C"/>
</linearGradient>
</defs>
</svg>
