<svg width="72" height="72" viewBox="0 0 72 72" fill="none" xmlns="http://www.w3.org/2000/svg">
<path d="M67.1593 36.9749C67.1593 34.6636 66.9519 32.4411 66.5666 30.3076H35.8677V42.9309H53.4099C52.6395 46.9905 50.3282 50.4279 46.8612 52.7392V60.9473H57.4399C63.6034 55.2579 67.1593 46.9016 67.1593 36.9749Z" fill="#006AB5"/>
<path d="M35.8679 68.8297C44.6686 68.8297 52.047 65.9257 57.4401 60.9475L46.8614 52.7394C43.9574 54.6951 40.2534 55.8804 35.8679 55.8804C27.393 55.8804 20.1924 50.1614 17.6144 42.457H6.76904V50.8726C12.1325 61.5105 23.126 68.8297 35.8679 68.8297Z" fill="#3DA755"/>
<path d="M17.6144 42.4268C16.9625 40.4711 16.5773 38.3968 16.5773 36.2337C16.5773 34.0705 16.9625 31.9963 17.6144 30.0405V21.625H6.76906C4.54665 26.0106 3.27246 30.9591 3.27246 36.2337C3.27246 41.5082 4.54665 46.4568 6.76906 50.8424L15.2142 44.264L17.6144 42.4268Z" fill="#FFC654"/>
<path d="M35.8679 16.6181C40.6683 16.6181 44.9353 18.2775 48.343 21.4777L57.6772 12.1436C52.0174 6.86907 44.6686 3.63916 35.8679 3.63916C23.126 3.63916 12.1325 10.9583 6.76904 21.6259L17.6144 30.0414C20.1924 22.3371 27.3931 16.6181 35.8679 16.6181Z" fill="#EA4335"/>
</svg>
