<svg width="25" height="25" viewBox="0 0 25 25" fill="none" xmlns="http://www.w3.org/2000/svg">
<path d="M12.1367 2.3531C12.1816 2.26233 12.251 2.18592 12.337 2.13251C12.4231 2.07909 12.5223 2.05078 12.6236 2.05078C12.7249 2.05078 12.8242 2.07909 12.9102 2.13251C12.9962 2.18592 13.0656 2.26233 13.1106 2.3531L15.4787 7.14985C15.6347 7.46556 15.865 7.73871 16.1498 7.94584C16.4346 8.15297 16.7654 8.2879 17.1138 8.33904L22.4098 9.11406C22.5102 9.1286 22.6045 9.17093 22.682 9.23626C22.7596 9.30159 22.8173 9.38732 22.8486 9.48374C22.88 9.58017 22.8838 9.68345 22.8595 9.78189C22.8352 9.88034 22.7838 9.97003 22.7112 10.0408L18.8812 13.7704C18.6286 14.0165 18.4397 14.3203 18.3305 14.6557C18.2214 14.9911 18.1955 15.348 18.2549 15.6956L19.159 20.965C19.1768 21.0653 19.1659 21.1685 19.1278 21.263C19.0896 21.3574 19.0257 21.4392 18.9433 21.4991C18.8609 21.5589 18.7633 21.5944 18.6617 21.6015C18.5601 21.6086 18.4585 21.5869 18.3686 21.5391L13.6344 19.05C13.3225 18.8862 12.9754 18.8006 12.6231 18.8006C12.2708 18.8006 11.9237 18.8862 11.6118 19.05L6.87859 21.5391C6.78871 21.5866 6.68729 21.608 6.58586 21.6008C6.48442 21.5936 6.38704 21.5581 6.3048 21.4983C6.22256 21.4385 6.15875 21.3568 6.12064 21.2625C6.08253 21.1682 6.07164 21.0651 6.08921 20.965L6.99238 15.6967C7.05204 15.3488 7.0262 14.9917 6.91707 14.6562C6.80795 14.3206 6.61882 14.0166 6.36601 13.7704L2.53599 10.0418C2.46279 9.97113 2.41091 9.88129 2.38628 9.78255C2.36164 9.6838 2.36523 9.58012 2.39665 9.48332C2.42806 9.38651 2.48603 9.30048 2.56395 9.23502C2.64187 9.16955 2.73662 9.12729 2.83739 9.11304L8.13237 8.33904C8.48119 8.28829 8.81245 8.15354 9.09765 7.94639C9.38284 7.73923 9.61343 7.46587 9.76956 7.14985L12.1367 2.3531Z" fill="#FFBB33"/>
</svg>
