<svg width="191" height="191" viewBox="0 0 191 191" fill="none" xmlns="http://www.w3.org/2000/svg">
<g clip-path="url(#clip0_1572_14263)">
<circle cx="95.5" cy="95.5" r="95.5" fill="#D31F23"/>
<path d="M16.6666 93.0091L18.0616 93.0159L18.0353 98.3789L16.6404 98.372L16.6666 93.0091Z" fill="#FAFAFA"/>
<path d="M23.745 81.9161C23.5514 82.9206 22.8592 83.4817 21.6807 83.6176L12.4434 84.6153L12.7485 83.0324L21.5607 82.1107C21.9465 82.0745 22.1644 81.9271 22.223 81.6227C22.2817 81.3183 22.1343 81.1005 21.7895 80.9235L13.9454 76.8227L14.2535 75.2247L22.4581 79.5844C23.5017 80.1486 23.9328 80.942 23.745 81.9161Z" fill="#FAFAFA"/>
<path d="M16.4298 72.148C16.269 72.6823 15.709 72.9831 15.1747 72.8223C14.6404 72.6614 14.3247 72.097 14.4855 71.5627C14.6464 71.0283 15.2167 70.7468 15.751 70.9077C16.2853 71.0685 16.5907 71.6137 16.4298 72.148ZM17.6506 73.3086L18.0929 71.8393L25.3655 74.0286L24.9232 75.4979L17.6506 73.3086Z" fill="#FAFAFA"/>
<path d="M27.6495 68.4339C26.794 70.579 24.6017 71.557 22.4277 70.6899C20.3977 69.8802 19.322 67.7658 20.1661 65.6494C21.016 63.5186 23.0847 62.8085 25.0571 63.5952L25.633 63.8249L23.3821 69.4686C24.6546 69.7925 25.8715 69.2099 26.3769 67.943C26.7214 67.0791 26.6571 66.1524 26.0462 65.4248L27.0441 64.5546C28.0066 65.656 28.2008 67.0518 27.6495 68.4339ZM22.4836 69.0435L24.1431 64.8827C22.9972 64.4924 21.9068 65.0087 21.4417 66.1749C20.9651 67.3698 21.4901 68.4803 22.4836 69.0435Z" fill="#FAFAFA"/>
<path d="M30.9843 61.5633C30.6007 62.2188 29.8706 62.5457 28.9583 62.2633L22.6818 60.3141L23.4099 59.07L29.3853 60.9507C29.5693 61.0045 29.6809 60.998 29.767 60.8508C29.8296 60.7438 29.783 60.6087 29.6782 60.5115L26.0371 56.9438C25.3519 56.2734 25.2302 55.5916 25.6373 54.8959C26.0444 54.2003 26.6773 53.9781 27.5974 54.2472L32.4967 55.6956C32.6539 55.7338 32.7734 55.7139 32.8517 55.5801C32.9221 55.4597 32.881 55.3459 32.744 55.2118L28.1544 50.9633L28.8747 49.7326L33.6714 54.2101C34.3645 54.8671 34.4448 55.6504 34.0612 56.3059C33.6619 56.9882 32.9944 57.2082 32.0955 56.9335L27.1349 55.4671C26.9776 55.4289 26.8582 55.4488 26.7799 55.5826C26.7095 55.703 26.7506 55.8169 26.8687 55.9219L30.5688 59.5421C31.2485 60.1913 31.3836 60.881 30.9843 61.5633Z" fill="#FAFAFA"/>
<path d="M40.2901 47.5776L39.2606 48.6734L32.641 42.4539C31.9519 41.8065 31.9811 40.9831 32.5224 40.407C32.9575 39.9439 33.4354 39.7974 34.0325 39.9543L42.9786 42.362C43.1121 42.4236 43.1785 42.4435 43.2422 42.3757C43.2846 42.3305 43.2726 42.298 43.2049 42.2343L36.7547 36.1741L37.7842 35.0783L44.4151 41.3084C45.1042 41.9558 45.0319 42.8024 44.5436 43.3221C44.1403 43.7513 43.6094 43.9543 43.001 43.7868L34.0543 41.3572C33.9427 41.2948 33.8762 41.275 33.8232 41.3315C33.7595 41.3992 33.7835 41.4643 33.8738 41.5492L40.2901 47.5776Z" fill="#FAFAFA"/>
<path d="M50.1065 38.3809C48.3118 39.8097 45.8095 39.5035 44.4387 37.7815C43.0775 36.0717 43.3619 33.5669 45.1445 32.1478C46.9393 30.7191 49.4173 31.0446 50.7688 32.7423C52.1396 34.4643 51.8891 36.9618 50.1065 38.3809ZM49.1991 37.241C50.3026 36.3625 50.4371 34.7894 49.5779 33.7101C48.7091 32.6187 47.1458 32.3971 46.0423 33.2756C44.9267 34.1638 44.78 35.7465 45.6489 36.8379C46.5081 37.9172 48.0834 38.1292 49.1991 37.241Z" fill="#FAFAFA"/>
<path d="M56.6688 33.8341C56.0113 34.2143 55.215 34.1377 54.5615 33.4413L50.0685 28.6448L51.3163 27.9231L55.5814 32.5112C55.7148 32.649 55.815 32.6984 55.9626 32.6131C56.07 32.551 56.0961 32.4105 56.0531 32.2742L54.651 27.3732C54.3867 26.4518 54.6178 25.7988 55.3156 25.3953C56.0133 24.9918 56.6733 25.1114 57.3402 25.8L60.8834 29.4806C61.0013 29.5915 61.1149 29.6332 61.2491 29.5556C61.3699 29.4857 61.3904 29.3664 61.3375 29.1821L59.4474 23.2205L60.6818 22.5066L62.6389 28.7697C62.9167 29.6834 62.5993 30.4041 61.9419 30.7843C61.2576 31.1801 60.5686 31.0414 59.9229 30.3584L56.3352 26.632C56.2173 26.5211 56.1037 26.4794 55.9695 26.557C55.8488 26.6268 55.8282 26.7461 55.879 26.8958L57.3065 31.8716C57.5765 32.7719 57.3531 33.4383 56.6688 33.8341Z" fill="#FAFAFA"/>
<path d="M73.8627 19.7379L74.2984 21.0631L69.2038 22.7384L68.768 21.4132L73.8627 19.7379Z" fill="#FAFAFA"/>
<path d="M86.634 22.9801C85.6191 23.109 84.8703 22.6261 84.374 21.5485L80.5481 13.0818L82.1473 12.8786L85.7686 20.9651C85.9231 21.3204 86.131 21.4815 86.4386 21.4424C86.7461 21.4034 86.9072 21.1954 86.9679 20.8127L88.4208 12.0814L90.0354 11.8762L88.4487 21.0307C88.2377 22.1982 87.6181 22.855 86.634 22.9801Z" fill="#FAFAFA"/>
<path d="M93.5804 12.9734C93.0226 12.9905 92.5595 12.5551 92.5424 11.9973C92.5252 11.4396 92.9602 10.961 93.5179 10.9438C94.0757 10.9267 94.5237 11.3781 94.5409 11.9358C94.5581 12.4936 94.1381 12.9562 93.5804 12.9734ZM92.8675 14.4995L94.4012 14.4523L94.6348 22.0437L93.101 22.0909L92.8675 14.4995Z" fill="#FAFAFA"/>
<path d="M100.663 22.4575C98.3583 22.3152 96.7443 20.5383 96.8885 18.2022C97.0232 16.0209 98.6956 14.3383 100.97 14.4787C103.259 14.6201 104.58 16.3633 104.45 18.4828L104.411 19.1016L98.347 18.7271C98.4369 20.0372 99.3706 21.0111 100.732 21.0951C101.66 21.1525 102.521 20.8018 103.021 19.9941L104.159 20.6701C103.414 21.9285 102.149 22.5492 100.663 22.4575ZM98.47 17.7408L102.941 18.0169C102.954 16.8064 102.122 15.932 100.869 15.8546C99.5852 15.7753 98.6944 16.621 98.47 17.7408Z" fill="#FAFAFA"/>
<path d="M108.238 23.4595C107.494 23.304 106.952 22.7156 106.93 21.7609L106.784 15.1904L108.195 15.4854L108.311 21.7487C108.318 21.9402 108.36 22.044 108.527 22.0789C108.648 22.1043 108.761 22.0171 108.82 21.8869L111.046 17.3009C111.464 16.4382 112.072 16.1061 112.861 16.2711C113.65 16.4361 114.061 16.9656 114.099 17.9235L114.282 23.0291C114.296 23.1903 114.352 23.2972 114.504 23.329C114.641 23.3575 114.736 23.2823 114.819 23.1098L117.389 17.4081L118.785 17.7L116.064 23.6709C115.661 24.5368 114.944 24.8619 114.2 24.7064C113.427 24.5446 113.006 23.9816 112.981 23.042L112.795 17.8725C112.781 17.7113 112.724 17.6044 112.573 17.5727C112.436 17.5441 112.341 17.6193 112.279 17.7647L110.022 22.4233C109.623 23.274 109.012 23.6213 108.238 23.4595Z" fill="#FAFAFA"/>
<path d="M124.443 27.8738L123.079 27.2401L126.908 19.0035C127.307 18.1461 128.097 17.9155 128.814 18.2487C129.391 18.5166 129.68 18.9244 129.718 19.5405L130.238 28.7903C130.222 28.9364 130.224 29.0057 130.308 29.0449C130.364 29.071 130.391 29.0495 130.431 28.9651L134.161 20.9394L135.525 21.5731L131.689 29.8238C131.291 30.6812 130.464 30.8781 129.818 30.5776C129.284 30.3293 128.924 29.8888 128.893 29.2587L128.393 20.0013C128.417 19.8758 128.415 19.8065 128.345 19.7738C128.26 19.7346 128.206 19.7778 128.154 19.8902L124.443 27.8738Z" fill="#FAFAFA"/>
<path d="M136.255 34.3076C134.335 33.0524 133.84 30.5806 135.044 28.7383C136.24 26.909 138.707 26.3923 140.614 27.639C142.534 28.8941 143.004 31.349 141.816 33.1654C140.612 35.0077 138.162 35.5543 136.255 34.3076ZM137.052 33.0881C138.233 33.8598 139.769 33.4934 140.523 32.3387C141.287 31.1711 141.006 29.6173 139.825 28.8456C138.632 28.0653 137.083 28.4233 136.32 29.5909C135.565 30.7456 135.859 32.3078 137.052 33.0881Z" fill="#FAFAFA"/>
<path d="M142.63 39.1111C142.063 38.6059 141.886 37.8257 142.343 36.9869L145.49 31.2171L146.566 32.176L143.546 37.664C143.457 37.8338 143.441 37.9445 143.568 38.0579C143.661 38.1404 143.803 38.1212 143.919 38.0377L148.133 35.1704C148.926 34.6306 149.618 34.6455 150.22 35.1816C150.822 35.7177 150.915 36.382 150.47 37.2311L148.085 41.7492C148.017 41.8959 148.013 42.0169 148.129 42.12C148.233 42.2128 148.352 42.1949 148.511 42.0869L153.58 38.4238L154.645 39.3723L149.31 43.1935C148.53 43.7436 147.746 43.6681 147.179 43.1629C146.589 42.6371 146.504 41.9394 146.951 41.1122L149.365 36.5374C149.433 36.3907 149.437 36.2698 149.322 36.1667C149.218 36.0739 149.098 36.0918 148.972 36.1869L144.694 39.1017C143.923 39.6402 143.221 39.6369 142.63 39.1111Z" fill="#FAFAFA"/>
<path d="M161.415 51.0074L160.294 51.8374L157.103 47.5271L158.224 46.697L161.415 51.0074Z" fill="#FAFAFA"/>
<path d="M162.366 64.1416C161.923 63.2197 162.144 62.3565 163.009 61.5448L169.83 55.2365L170.529 56.6892L164.004 62.6831C163.715 62.9421 163.628 63.1904 163.763 63.4697C163.897 63.7491 164.145 63.8361 164.528 63.7726L173.27 62.3882L173.976 63.8548L164.789 65.2463C163.615 65.4155 162.796 65.0356 162.366 64.1416Z" fill="#FAFAFA"/>
<path d="M174.058 67.5842C173.867 67.0601 174.135 66.4836 174.659 66.292C175.183 66.1004 175.774 66.363 175.965 66.8871C176.157 67.4111 175.869 67.9784 175.345 68.17C174.821 68.3615 174.25 68.1082 174.058 67.5842ZM172.385 67.387L172.912 68.8282L165.779 71.4357L165.252 69.9945L172.385 67.387Z" fill="#FAFAFA"/>
<path d="M167.284 77.2876C166.693 75.055 167.871 72.9634 170.133 72.3645C172.246 71.8052 174.37 72.8624 174.953 75.065C175.54 77.2826 174.302 79.0856 172.249 79.629L171.65 79.7877L170.095 73.914C168.88 74.412 168.25 75.605 168.599 76.9236C168.837 77.8226 169.44 78.5286 170.365 78.7489L170.082 80.0424C168.652 79.7313 167.665 78.7261 167.284 77.2876ZM171.07 73.7201L172.216 78.0504C173.369 77.6811 173.937 76.6167 173.616 75.4031C173.286 74.1594 172.203 73.5803 171.07 73.7201Z" fill="#FAFAFA"/>
<path d="M168.709 84.7915C168.625 84.0368 169.014 83.338 169.914 83.0187L176.11 80.8268L176.271 82.2593L170.357 84.326C170.178 84.393 170.092 84.4649 170.111 84.6344C170.125 84.7576 170.243 84.8379 170.385 84.8532L175.437 85.5346C176.387 85.662 176.893 86.1356 176.982 86.9366C177.072 87.7376 176.698 88.2943 175.8 88.6289L171.007 90.3985C170.858 90.4619 170.774 90.5493 170.792 90.7034C170.807 90.842 170.908 90.9086 171.098 90.9341L177.317 91.5938L177.476 93.0109L170.954 92.2916C170.006 92.1796 169.473 91.5999 169.388 90.8451C169.3 90.0595 169.703 89.484 170.588 89.1665L175.441 87.3746C175.589 87.3112 175.673 87.2238 175.656 87.0697C175.64 86.9311 175.539 86.8645 175.382 86.8509L170.251 86.1628C169.318 86.049 168.797 85.5771 168.709 84.7915Z" fill="#FAFAFA"/>
<path d="M169.6 101.566L169.77 100.073L178.795 101.101C179.734 101.208 180.203 101.886 180.113 102.671C180.041 103.302 179.746 103.706 179.174 103.937L170.563 107.355C170.419 107.385 170.354 107.409 170.343 107.501C170.336 107.563 170.365 107.582 170.458 107.592L179.251 108.595L179.081 110.088L170.041 109.058C169.101 108.951 168.653 108.229 168.734 107.521C168.801 106.935 169.105 106.455 169.693 106.226L178.317 102.825C178.444 102.808 178.509 102.785 178.518 102.708C178.529 102.615 178.47 102.577 178.347 102.563L169.6 101.566Z" fill="#FAFAFA"/>
<path d="M167.23 114.807C167.814 112.588 170.003 111.337 172.131 111.897C174.245 112.454 175.515 114.631 174.935 116.835C174.351 119.053 172.17 120.274 170.072 119.722C167.943 119.162 166.65 117.01 167.23 114.807ZM168.639 115.178C168.28 116.542 169.113 117.883 170.447 118.234C171.796 118.589 173.182 117.832 173.541 116.468C173.904 115.089 173.075 113.732 171.726 113.377C170.391 113.026 169.002 113.799 168.639 115.178Z" fill="#FAFAFA"/>
<path d="M164.687 122.373C164.987 121.675 165.672 121.261 166.612 121.429L173.08 122.594L172.51 123.918L166.349 122.785C166.16 122.754 166.05 122.774 165.983 122.93C165.934 123.044 165.997 123.173 166.112 123.256L170.164 126.35C170.926 126.931 171.131 127.593 170.812 128.334C170.493 129.074 169.892 129.372 168.946 129.218L163.906 128.382C163.745 128.363 163.629 128.398 163.568 128.54C163.513 128.668 163.568 128.776 163.72 128.892L168.796 132.545L168.233 133.855L162.923 130C162.154 129.433 161.978 128.666 162.279 127.968C162.591 127.242 163.227 126.942 164.152 127.104L169.256 127.951C169.416 127.969 169.532 127.935 169.594 127.792C169.649 127.664 169.594 127.556 169.464 127.466L165.348 124.328C164.593 123.767 164.375 123.099 164.687 122.373Z" fill="#FAFAFA"/>
<path d="M159.277 143.944L158.138 143.138L161.236 138.76L162.375 139.566L159.277 143.944Z" fill="#FAFAFA"/>
<path d="M147.118 148.969C147.854 148.259 148.743 148.198 149.785 148.765L157.914 153.265L156.753 154.384L149.016 150.067C148.68 149.874 148.417 149.869 148.193 150.085C147.97 150.3 147.966 150.563 148.146 150.906L152.201 158.774L151.03 159.903L146.828 151.616C146.299 150.554 146.403 149.657 147.118 148.969Z" fill="#FAFAFA"/>
<path d="M147.534 161.142C147.971 160.795 148.603 160.867 148.95 161.303C149.297 161.74 149.235 162.384 148.798 162.731C148.362 163.078 147.733 162.985 147.385 162.548C147.038 162.111 147.098 161.489 147.534 161.142ZM147.193 159.492L145.992 160.448L141.265 154.503L142.465 153.548L147.193 159.492Z" fill="#FAFAFA"/>
<path d="M136.184 157.774C138.117 156.511 140.473 156.972 141.753 158.931C142.949 160.761 142.613 163.109 140.705 164.355C138.785 165.61 136.684 165.001 135.523 163.224L135.183 162.705L140.27 159.382C139.415 158.385 138.085 158.162 136.943 158.908C136.164 159.416 135.684 160.211 135.765 161.158L134.449 161.296C134.294 159.842 134.938 158.588 136.184 157.774ZM140.761 160.246L137.011 162.696C137.724 163.674 138.913 163.879 139.964 163.192C141.041 162.488 141.25 161.278 140.761 160.246Z" fill="#FAFAFA"/>
<path d="M129.511 161.494C130.2 161.175 130.986 161.323 131.574 162.076L135.613 167.261L134.305 167.866L130.474 162.91C130.353 162.761 130.258 162.702 130.103 162.774C129.991 162.826 129.952 162.964 129.982 163.103L130.934 168.111C131.114 169.053 130.824 169.682 130.093 170.021C129.361 170.359 128.715 170.18 128.113 169.434L124.918 165.447C124.811 165.326 124.702 165.274 124.561 165.339C124.434 165.398 124.403 165.515 124.439 165.703L125.781 171.812L124.487 172.411L123.106 165.996C122.912 165.061 123.293 164.372 123.983 164.053C124.7 163.721 125.374 163.921 125.955 164.66L129.189 168.697C129.297 168.818 129.406 168.87 129.547 168.804C129.673 168.746 129.705 168.629 129.668 168.475L128.698 163.39C128.51 162.469 128.793 161.826 129.511 161.494Z" fill="#FAFAFA"/>
<path d="M113.874 167.623L115.347 167.319L117.183 176.214C117.374 177.14 116.877 177.797 116.102 177.957C115.48 178.085 115.005 177.93 114.607 177.458L108.675 170.342C108.601 170.215 108.558 170.16 108.467 170.179C108.406 170.192 108.397 170.225 108.416 170.316L110.205 178.984L108.733 179.288L106.893 170.377C106.702 169.451 107.248 168.801 107.947 168.656C108.524 168.537 109.075 168.677 109.476 169.164L115.396 176.298C115.452 176.413 115.494 176.468 115.57 176.452C115.661 176.433 115.679 176.366 115.654 176.245L113.874 167.623Z" fill="#FAFAFA"/>
<path d="M100.556 169.521C102.845 169.373 104.725 171.054 104.866 173.25C105.007 175.431 103.343 177.325 101.07 177.472C98.7803 177.619 96.9321 175.937 96.7923 173.772C96.6504 171.575 98.2825 169.668 100.556 169.521ZM100.65 170.975C99.2425 171.066 98.2337 172.281 98.3226 173.657C98.4124 175.049 99.5691 176.124 100.977 176.033C102.4 175.941 103.424 174.726 103.334 173.334C103.245 171.957 102.073 170.883 100.65 170.975Z" fill="#FAFAFA"/>
<path d="M92.5751 169.49C93.3316 169.556 93.9392 170.077 94.0734 171.022L94.9921 177.53L93.5562 177.403L92.7043 171.197C92.6743 171.008 92.6207 170.91 92.4509 170.895C92.3274 170.884 92.2252 170.984 92.182 171.12L90.5115 175.936C90.198 176.842 89.6335 177.243 88.8306 177.172C88.0278 177.101 87.5565 176.624 87.4068 175.677L86.6237 170.629C86.591 170.47 86.522 170.371 86.3676 170.357C86.2287 170.345 86.1433 170.431 86.0806 170.612L84.1996 176.576L82.7792 176.451L84.7787 170.201C85.0767 169.294 85.7507 168.886 86.5072 168.953C87.2947 169.023 87.7787 169.533 87.9143 170.463L88.7074 175.574C88.74 175.733 88.809 175.832 88.9634 175.846C89.1024 175.858 89.1878 175.772 89.2323 175.621L90.9251 170.729C91.2218 169.837 91.7877 169.42 92.5751 169.49Z" fill="#FAFAFA"/>
<path d="M65.9523 169.5L66.4374 168.192L71.4657 170.057L70.9806 171.365L65.9523 169.5Z" fill="#FAFAFA"/>
<path d="M57.973 159.027C58.8486 159.556 59.1358 160.399 58.8558 161.552L56.5978 170.565L55.2181 169.731L57.4003 161.144C57.4998 160.769 57.4368 160.514 57.1715 160.353C56.9061 160.193 56.6507 160.256 56.3655 160.518L49.8053 166.461L48.4123 165.619L55.3401 159.428C56.2304 158.644 57.1239 158.514 57.973 159.027Z" fill="#FAFAFA"/>
<path d="M46.2977 162.537C46.7446 162.871 46.8353 163.5 46.501 163.947C46.1668 164.394 45.5283 164.497 45.0815 164.163C44.6347 163.828 44.5657 163.196 44.8999 162.749C45.2341 162.302 45.8509 162.202 46.2977 162.537ZM47.8065 161.788L46.5777 160.868L51.127 154.787L52.3558 155.706L47.8065 161.788Z" fill="#FAFAFA"/>
<path d="M46.6547 150.723C48.3764 152.262 48.5432 154.657 46.9832 156.402C45.5265 158.031 43.1714 158.316 41.4728 156.798C39.7627 155.269 39.805 153.082 41.2204 151.499L41.6336 151.037L46.1632 155.086C46.9039 154.002 46.7739 152.659 45.7571 151.75C45.0638 151.13 44.1712 150.873 43.2782 151.197L42.803 149.961C44.1676 149.435 45.5454 149.731 46.6547 150.723ZM45.4558 155.785L42.1164 152.799C41.3568 153.741 41.4679 154.943 42.4038 155.78C43.3629 156.637 44.5861 156.525 45.4558 155.785Z" fill="#FAFAFA"/>
<path d="M41.3411 145.236C41.826 145.821 41.8836 146.619 41.3063 147.38L37.3286 152.611L36.4084 151.502L40.2188 146.53C40.3322 146.375 40.3643 146.268 40.2554 146.137C40.1763 146.041 40.0334 146.039 39.9062 146.104L35.3086 148.306C34.4444 148.721 33.7619 148.602 33.2474 147.982C32.7329 147.361 32.7405 146.69 33.3079 145.918L36.3442 141.809C36.4338 141.674 36.456 141.555 36.357 141.436C36.268 141.329 36.1469 141.328 35.9741 141.411L30.4124 144.272L29.5021 143.174L35.3498 140.197C36.2042 139.771 36.9678 139.963 37.4526 140.547C37.9573 141.156 37.9357 141.858 37.3703 142.609L34.2962 146.77C34.2066 146.904 34.1845 147.023 34.2834 147.143C34.3725 147.25 34.4935 147.25 34.6326 147.175L39.2997 144.936C40.1422 144.519 40.8365 144.628 41.3411 145.236Z" fill="#FAFAFA"/>
<path d="M31.3783 131.71L32.0515 133.054L23.9301 137.122C23.0847 137.545 22.322 137.234 21.968 136.527C21.6834 135.958 21.7108 135.459 22.064 134.953L27.4104 127.387C27.5144 127.283 27.5559 127.228 27.5143 127.144C27.4865 127.089 27.4518 127.089 27.3687 127.131L19.4551 131.094L18.7819 129.749L26.9172 125.675C27.7626 125.252 28.5322 125.612 28.8515 126.249C29.1153 126.776 29.1226 127.344 28.7555 127.858L23.3883 135.417C23.2913 135.5 23.2497 135.555 23.2844 135.625C23.3261 135.708 23.3954 135.708 23.5063 135.652L31.3783 131.71Z" fill="#FAFAFA"/>
<path d="M26.117 119.328C26.8466 121.503 25.7039 123.75 23.6172 124.45C21.5452 125.145 19.2883 124.022 18.5637 121.862C17.8341 119.687 18.9866 117.469 21.0439 116.779C23.1306 116.079 25.3923 117.168 26.117 119.328ZM24.7356 119.791C24.287 118.454 22.8545 117.79 21.5466 118.229C20.2241 118.673 19.4817 120.066 19.9303 121.403C20.3839 122.755 21.8213 123.434 23.1439 122.99C24.4517 122.551 25.1892 121.143 24.7356 119.791Z" fill="#FAFAFA"/>
<path d="M24.1017 111.606C24.2311 112.354 23.8837 113.075 23.0043 113.447L16.9497 116.003L16.7042 114.583L22.4844 112.168C22.6598 112.091 22.7409 112.014 22.7118 111.846C22.6907 111.724 22.568 111.651 22.4252 111.644L17.3418 111.264C16.3858 111.193 15.8531 110.75 15.7158 109.956C15.5786 109.162 15.9191 108.584 16.796 108.197L21.475 106.145C21.6198 106.073 21.6982 105.981 21.6718 105.828C21.6481 105.691 21.5432 105.63 21.352 105.616L15.1046 105.327L14.8618 103.922L21.4152 104.252C22.3686 104.308 22.935 104.855 23.0644 105.603C23.199 106.382 22.8305 106.981 21.9663 107.35L17.2289 109.427C17.0841 109.5 17.0056 109.592 17.032 109.745C17.0558 109.882 17.1606 109.943 17.3186 109.947L22.4811 110.329C23.4192 110.387 23.9671 110.827 24.1017 111.606Z" fill="#FAFAFA"/>
<path d="M124.158 121.264C120.582 121.264 117.918 118.672 117.918 115.048C117.918 111.664 120.342 108.904 123.87 108.904C127.422 108.904 129.63 111.472 129.63 114.76V115.72H120.222C120.486 117.736 122.022 119.152 124.134 119.152C125.574 119.152 126.87 118.528 127.566 117.232L129.39 118.168C128.358 120.184 126.462 121.264 124.158 121.264ZM120.318 114.184H127.254C127.158 112.312 125.79 111.04 123.846 111.04C121.854 111.04 120.558 112.432 120.318 114.184Z" fill="#FAFAFA"/>
<path d="M113.923 121.312C110.995 121.312 109.435 119.464 109.435 116.776V111.304H107.107V109.24H109.435V106.192H111.811V109.24H116.323V111.304H111.811V116.704C111.811 118.24 112.723 119.152 114.139 119.152C114.907 119.152 115.747 118.864 116.323 118.456V120.64C115.723 121.048 114.787 121.312 113.923 121.312Z" fill="#FAFAFA"/>
<path d="M100.159 121.288C96.6071 121.288 93.8711 118.504 93.8711 115.096C93.8711 111.712 96.6311 108.952 100.159 108.952C103.711 108.952 106.399 111.736 106.399 115.096C106.399 118.504 103.687 121.288 100.159 121.288ZM100.159 119.032C102.343 119.032 104.023 117.256 104.023 115.12C104.023 112.96 102.343 111.184 100.159 111.184C97.9511 111.184 96.2471 112.96 96.2471 115.12C96.2471 117.256 97.9511 119.032 100.159 119.032Z" fill="#FAFAFA"/>
<path d="M86.0147 118.984C88.1987 118.984 89.3987 117.088 89.3987 114.904V109.24H91.7747V115.192C91.7747 118.6 89.7107 121.288 86.0147 121.288C82.3667 121.288 80.3027 118.576 80.3027 115.168V109.24H82.6787V114.928C82.6787 117.088 83.8547 118.984 86.0147 118.984Z" fill="#FAFAFA"/>
<path d="M78.4053 121.288H69.2613C64.6773 121.168 61.1973 117.592 61.1973 112.936C61.1973 108.28 64.8213 104.656 69.4773 104.656C74.1093 104.656 77.7093 108.28 77.7093 112.936C77.7093 115.432 76.7013 117.64 75.0693 119.152C75.3093 119.128 75.5733 119.128 75.7893 119.128H78.4053V121.288ZM69.4773 118.96C72.6453 118.96 75.1893 116.32 75.1893 112.936C75.1893 109.6 72.6693 106.984 69.4773 106.984C66.2853 106.984 63.7173 109.6 63.7173 112.936C63.7173 116.32 66.2613 118.96 69.4773 118.96Z" fill="#FAFAFA"/>
<path d="M118.056 87.2879C114.648 87.2879 112.152 84.5039 112.152 81.0959C112.152 77.7359 114.84 74.9519 118.416 74.9519C121.968 74.9519 124.68 77.5919 124.68 81.0959V86.9999H122.424V84.9359C121.536 86.3759 119.976 87.2879 118.056 87.2879ZM118.416 85.0319C120.624 85.0319 122.304 83.2559 122.304 81.1199C122.304 78.9599 120.624 77.1839 118.416 77.1839C116.232 77.1839 114.528 78.9599 114.528 81.1199C114.528 83.2559 116.232 85.0319 118.416 85.0319Z" fill="#FAFAFA"/>
<path d="M101.56 87.3119C98.6321 87.3119 97.0721 85.4639 97.0721 82.7759V77.3039H94.7441V75.2399H97.0721V72.1919H99.4481V75.2399H103.96V77.3039H99.4481V82.7039C99.4481 84.2399 100.36 85.1519 101.776 85.1519C102.544 85.1519 103.384 84.8639 103.96 84.4559V86.6399C103.36 87.0479 102.424 87.3119 101.56 87.3119Z" fill="#FAFAFA"/>
<path d="M88.3787 87.2641C84.8027 87.2641 82.1387 84.6721 82.1387 81.0481C82.1387 77.6641 84.5627 74.9041 88.0907 74.9041C91.6427 74.9041 93.8507 77.4721 93.8507 80.7601V81.7201H84.4427C84.7067 83.7361 86.2427 85.1521 88.3547 85.1521C89.7947 85.1521 91.0907 84.5281 91.7867 83.2321L93.6107 84.1681C92.5787 86.1841 90.6827 87.2641 88.3787 87.2641ZM84.5387 80.1841H91.4747C91.3787 78.3121 90.0107 77.0401 88.0667 77.0401C86.0747 77.0401 84.7787 78.4321 84.5387 80.1841Z" fill="#FAFAFA"/>
<path d="M73.7641 87.288C69.1561 87.288 65.5801 83.568 65.5801 78.936C65.5801 74.4 69.1321 70.656 73.7641 70.656C76.4281 70.656 79.0201 71.952 80.2681 74.4L78.2761 75.552C77.3161 73.896 75.6361 72.96 73.6681 72.96C70.5001 72.96 68.1001 75.624 68.1001 78.984C68.1001 82.416 70.5001 85.032 73.7641 85.032C75.6841 85.032 77.2441 84.288 78.0121 83.376V79.512H80.3881V84.216C79.2841 85.824 76.9081 87.288 73.7641 87.288Z" fill="#FAFAFA"/>
</g>
<defs>
<clipPath id="clip0_1572_14263">
<rect width="191" height="191" fill="white"/>
</clipPath>
</defs>
</svg>
