<svg width="191" height="191" viewBox="0 0 191 191" fill="none" xmlns="http://www.w3.org/2000/svg">
<g clip-path="url(#clip0_1572_14251)">
<circle cx="95.5" cy="95.5" r="95.5" fill="#D31F23"/>
<path d="M22.4536 93.1265C22.3571 96.1009 19.881 98.3313 16.8911 98.2344C13.9632 98.1394 11.6208 95.7682 11.7177 92.7783C11.7735 91.0587 12.6643 89.4127 14.2706 88.6584L14.9725 89.9683C13.8835 90.5533 13.2442 91.6182 13.203 92.8885C13.1366 94.9334 14.806 96.5384 16.9749 96.6087C19.1902 96.6806 20.929 95.1862 20.9974 93.0793C21.0376 91.8399 20.59 90.8174 20.0174 90.3025L17.5232 90.2216L17.5729 88.688L20.6093 88.7864C21.6242 89.5327 22.5194 91.0971 22.4536 93.1265Z" fill="#FAFAFA"/>
<path d="M23.7319 82.2074C23.1664 85.1765 20.4322 87.0225 17.4326 86.4512C14.4787 85.8886 12.6175 83.1515 13.1801 80.1976C13.7399 77.2589 16.4741 75.4129 19.428 75.9755C22.4275 76.5469 24.2917 79.2687 23.7319 82.2074ZM22.255 81.9261C22.6378 79.9162 21.2703 77.9832 19.1234 77.5743C17.007 77.1712 15.0428 78.4538 14.6571 80.4789C14.2714 82.504 15.6207 84.4493 17.7371 84.8524C19.884 85.2614 21.8664 83.9664 22.255 81.9261Z" fill="#FAFAFA"/>
<path d="M25.3868 60.2003C28.3768 61.4868 29.2374 64.5063 27.9693 67.4536L26.5786 70.6856L17.0392 66.581L18.4605 63.2778C19.7776 60.2166 22.5535 58.9811 25.3868 60.2003ZM24.7436 61.6952C22.7218 60.8253 20.7178 61.7179 19.7989 63.8536L19.0024 65.7046L25.8794 68.6636L26.6452 66.8838C27.5396 64.8051 26.922 62.6326 24.7436 61.6952Z" fill="#FAFAFA"/>
<path d="M22.2349 55.0846L23.0124 53.708L32.0548 58.8152L31.2772 60.1918L22.2349 55.0846Z" fill="#FAFAFA"/>
<path d="M36.4126 52.7838C34.6755 55.2002 31.3766 55.673 28.9477 53.9268C26.5691 52.2168 25.9448 48.9427 27.691 46.5138C28.6953 45.1168 30.3521 44.2462 32.1062 44.5146L31.9594 45.9935C30.7291 45.8726 29.6049 46.4007 28.863 47.4327C27.6687 49.094 28.1609 51.3568 29.9229 52.6235C31.7226 53.9173 33.9991 53.6449 35.2296 51.9333C35.9534 50.9265 36.1514 49.828 35.9627 49.0814L33.9364 47.6248L34.8321 46.3788L37.2989 48.1522C37.7259 49.3373 37.5979 51.1351 36.4126 52.7838Z" fill="#FAFAFA"/>
<path d="M32.5423 40.4473L33.5974 39.2698L41.3317 46.2L40.2767 47.3775L32.5423 40.4473Z" fill="#FAFAFA"/>
<path d="M41.1361 31.8941L42.1393 32.9507L39.8237 35.1492L45.9708 41.6239L44.8243 42.7124L38.6771 36.2377L36.3728 38.4255L35.3696 37.3689L41.1361 31.8941Z" fill="#FAFAFA"/>
<path d="M48.3846 39.4272L45.2465 30.3969C44.9161 29.4271 45.2512 28.602 45.9496 28.0867C46.6605 27.5621 47.5477 27.4853 48.377 28.087L56.08 33.7489L54.7828 34.7061L52.6624 33.1116L48.7803 35.9954L49.6693 38.4793L48.3846 39.4272ZM46.6201 29.9612L48.2736 34.5778L51.479 32.2126L47.568 29.2618C47.2874 29.0643 47.0457 29.05 46.8088 29.2249C46.5593 29.409 46.5017 29.6441 46.6201 29.9612Z" fill="#FAFAFA"/>
<path d="M54.2149 22.8177L58.5639 30.6149L63.0716 28.1006L63.7814 29.373L59.1653 31.9477C58.2449 32.4611 57.6286 32.1837 57.1983 31.4121L52.8341 23.5879L54.2149 22.8177Z" fill="#FAFAFA"/>
<path d="M72.8722 20.0416L73.3225 21.3619L68.2466 23.0931L67.7963 21.7728L72.8722 20.0416Z" fill="#FAFAFA"/>
<path d="M86.4248 23.02C83.4757 23.4192 80.8649 21.3481 80.4637 18.3836C80.0708 15.4806 82.0198 12.7768 84.9842 12.3756C86.6892 12.1448 88.4603 12.7498 89.4711 14.2084L88.296 15.1182C87.5382 14.1415 86.3819 13.688 85.1224 13.8585C83.0949 14.1329 81.7896 16.0457 82.0806 18.1961C82.3779 20.3926 84.1405 21.8589 86.2294 21.5762C87.4582 21.4099 88.3922 20.7986 88.8047 20.1484L88.47 17.6755L89.9907 17.4697L90.3981 20.4802C89.8308 21.605 88.437 22.7477 86.4248 23.02Z" fill="#FAFAFA"/>
<path d="M94.5573 22.1807L93.0073 22.1671L93.0983 11.7825L96.7097 11.8141C98.9106 11.8334 100.622 12.856 100.603 14.9949C100.591 16.4673 99.6822 17.5289 98.2226 17.8261C99.056 18.2364 99.498 19.0928 100.092 20.3226L101.021 22.2373L99.3156 22.2224L98.463 20.4633C97.8537 19.2334 97.3493 18.423 95.8924 18.4102L94.6059 18.3989L94.5573 22.1807ZM96.7124 13.2712L94.6665 13.2533L94.6183 16.9885L96.6487 17.0063C97.9816 17.018 98.9638 16.3756 98.9748 15.1201C98.9861 13.8337 97.9679 13.2822 96.7124 13.2712Z" fill="#FAFAFA"/>
<path d="M107.652 23.3541C104.666 22.8849 102.732 20.2119 103.206 17.1954C103.673 14.2248 106.348 12.276 109.319 12.7428C112.274 13.2072 114.208 15.8802 113.741 18.8508C113.267 21.8672 110.607 23.8185 107.652 23.3541ZM107.885 21.8688C109.906 22.1864 111.794 20.7571 112.133 18.5981C112.468 16.4697 111.122 14.5481 109.086 14.2281C107.049 13.9081 105.148 15.3196 104.814 17.448C104.475 19.607 105.833 21.5464 107.885 21.8688Z" fill="#FAFAFA"/>
<path d="M116.118 23.7328L117.284 14.4141L118.775 14.9398L117.594 23.7435C117.56 23.9782 117.597 24.1063 117.714 24.1476C117.831 24.1888 117.95 24.132 118.076 23.9136L122.157 17.5128C122.667 16.6735 123.308 16.4394 123.98 16.6765C124.668 16.9188 125.011 17.4835 124.896 18.462L124.113 26.0421C124.1 26.2674 124.122 26.3903 124.254 26.4367C124.385 26.4831 124.48 26.4014 124.581 26.207L129.051 18.5629L130.542 19.0886L125.783 27.0415C125.303 27.8421 124.615 28.2077 123.811 27.9243C123.037 27.6511 122.661 26.9927 122.756 26.0237L123.555 18.3507C123.572 18.2088 123.548 18.1349 123.475 18.1091C123.417 18.0885 123.338 18.1263 123.262 18.2476L119.085 24.8281C118.606 25.5797 117.871 25.8464 117.17 25.5991C116.41 25.3311 116.004 24.6623 116.118 23.7328Z" fill="#FAFAFA"/>
<path d="M143.231 32.4669C141.457 35.196 138.335 35.5332 135.645 33.7846L132.695 31.867L138.355 23.1598L141.37 25.1197C144.164 26.9359 144.912 29.8808 143.231 32.4669ZM141.866 31.5799C143.066 29.7345 142.525 27.6084 140.576 26.3413L138.886 25.2431L134.806 31.52L136.431 32.576C138.328 33.8093 140.574 33.5683 141.866 31.5799Z" fill="#FAFAFA"/>
<path d="M148.83 30.2525L150.052 31.2558L143.461 39.2816L142.239 38.2782L148.83 30.2525Z" fill="#FAFAFA"/>
<path d="M148.669 44.5975C146.579 42.4784 146.669 39.1471 148.799 37.0467C150.885 34.9899 154.217 34.9257 156.317 37.0559C157.525 38.281 158.105 40.0607 157.545 41.7447L156.112 41.3509C156.438 40.1586 156.107 38.9615 155.214 38.0565C153.778 36.5996 151.464 36.7038 149.919 38.2274C148.341 39.7836 148.226 42.0735 149.706 43.5746C150.577 44.4575 151.626 44.8376 152.394 44.7773L154.171 43.0252L155.248 44.1178L153.085 46.2508C151.845 46.4723 150.094 46.0434 148.669 44.5975Z" fill="#FAFAFA"/>
<path d="M161.457 42.8184L162.445 44.0523L154.34 50.5453L153.352 49.3114L161.457 42.8184Z" fill="#FAFAFA"/>
<path d="M168.48 52.7577L167.27 53.5685L165.493 50.9157L158.075 55.8846L157.195 54.5711L164.613 49.6022L162.844 46.9623L164.055 46.1514L168.48 52.7577Z" fill="#FAFAFA"/>
<path d="M159.834 58.6349L169.266 57.0758C170.278 56.9149 171.034 57.3852 171.423 58.161C171.819 58.9507 171.744 59.838 171.011 60.5531L164.123 67.1827L163.4 65.7419L165.331 63.923L163.149 59.6076L160.55 60.0618L159.834 58.6349ZM169.462 58.5034L164.632 59.349L166.418 62.9094L169.99 59.5563C170.232 59.3134 170.288 59.0776 170.155 58.8144C170.016 58.5373 169.794 58.4406 169.462 58.5034Z" fill="#FAFAFA"/>
<path d="M175.214 67.2367L166.782 70.1715L168.479 75.0462L167.103 75.5251L165.365 70.5333C165.019 69.5379 165.399 68.979 166.233 68.6885L174.694 65.7436L175.214 67.2367Z" fill="#FAFAFA"/>
<path d="M174.769 86.0717L173.391 86.2892L172.555 80.9918L173.933 80.7743L174.769 86.0717Z" fill="#FAFAFA"/>
<path d="M169.549 98.9147C169.65 95.9404 172.129 93.7139 175.119 93.8155C178.047 93.9151 180.386 96.2899 180.284 99.2797C180.226 100.999 179.332 102.644 177.725 103.396L177.025 102.085C178.115 101.501 178.756 100.437 178.799 99.1671C178.869 97.1223 177.202 95.5148 175.033 95.441C172.818 95.3657 171.077 96.8574 171.005 98.9642C170.963 100.204 171.409 101.227 171.981 101.742L174.475 101.827L174.423 103.361L171.386 103.258C170.373 102.51 169.48 100.944 169.549 98.9147Z" fill="#FAFAFA"/>
<path d="M168.259 109.833C168.827 106.865 171.562 105.02 174.561 105.593C177.515 106.157 179.374 108.895 178.81 111.849C178.249 114.787 175.514 116.632 172.56 116.068C169.561 115.495 167.698 112.772 168.259 109.833ZM169.736 110.116C169.352 112.125 170.719 114.059 172.865 114.469C174.982 114.873 176.947 113.592 177.333 111.567C177.72 109.542 176.372 107.596 174.256 107.192C172.109 106.782 170.126 108.075 169.736 110.116Z" fill="#FAFAFA"/>
<path d="M166.593 131.84C163.604 130.552 162.745 127.532 164.015 124.585L165.407 121.354L174.944 125.463L173.521 128.766C172.202 131.826 169.426 133.06 166.593 131.84ZM167.237 130.345C169.259 131.216 171.263 130.325 172.183 128.189L172.98 126.339L166.105 123.376L165.338 125.155C164.443 127.234 165.059 129.407 167.237 130.345Z" fill="#FAFAFA"/>
<path d="M169.74 136.96L168.961 138.336L159.924 133.221L160.702 131.845L169.74 136.96Z" fill="#FAFAFA"/>
<path d="M155.562 139.249C157.3 136.834 160.6 136.363 163.028 138.111C165.405 139.822 166.028 143.096 164.28 145.524C163.275 146.921 161.618 147.79 159.864 147.521L160.012 146.042C161.242 146.164 162.366 145.636 163.109 144.605C164.304 142.944 163.813 140.681 162.052 139.413C160.253 138.119 157.976 138.39 156.745 140.101C156.02 141.107 155.822 142.205 156.01 142.952L158.035 144.41L157.139 145.655L154.673 143.881C154.247 142.695 154.376 140.898 155.562 139.249Z" fill="#FAFAFA"/>
<path d="M159.427 151.587L158.371 152.764L150.64 145.831L151.695 144.654L159.427 151.587Z" fill="#FAFAFA"/>
<path d="M150.828 160.137L149.825 159.08L152.142 156.882L145.998 150.405L147.145 149.317L153.289 155.794L155.595 153.608L156.597 154.665L150.828 160.137Z" fill="#FAFAFA"/>
<path d="M143.583 152.6L146.716 161.632C147.046 162.602 146.711 163.427 146.012 163.942C145.301 164.466 144.413 164.542 143.585 163.94L135.885 158.274L137.182 157.318L139.302 158.913L143.186 156.032L142.298 153.547L143.583 152.6ZM145.343 162.067L143.692 157.449L140.485 159.813L144.394 162.766C144.675 162.963 144.916 162.978 145.153 162.803C145.403 162.619 145.461 162.384 145.343 162.067Z" fill="#FAFAFA"/>
<path d="M137.742 169.206L133.399 161.406L128.889 163.918L128.18 162.645L132.798 160.073C133.719 159.56 134.335 159.838 134.765 160.61L139.124 168.437L137.742 169.206Z" fill="#FAFAFA"/>
<path d="M119.085 171.972L118.635 170.651L123.712 168.922L124.162 170.243L119.085 171.972Z" fill="#FAFAFA"/>
<path d="M105.534 168.986C108.483 168.589 111.093 170.661 111.492 173.626C111.883 176.529 109.933 179.232 106.968 179.631C105.263 179.861 103.492 179.255 102.482 177.796L103.658 176.887C104.415 177.864 105.571 178.318 106.831 178.148C108.859 177.875 110.165 175.963 109.875 173.813C109.579 171.616 107.817 170.148 105.728 170.43C104.499 170.596 103.565 171.206 103.152 171.856L103.485 174.329L101.965 174.534L101.559 171.524C102.127 170.399 103.521 169.257 105.534 168.986Z" fill="#FAFAFA"/>
<path d="M97.4008 169.82L98.9507 169.835L98.8506 180.219L95.2393 180.185C93.0384 180.163 91.3277 179.139 91.3483 177C91.3625 175.528 92.2718 174.467 93.7317 174.171C92.8986 173.76 92.4573 172.903 91.8647 171.673L90.9376 169.758L92.6425 169.774L93.4936 171.534C94.1018 172.764 94.6055 173.575 96.0624 173.589L97.3488 173.602L97.4008 169.82ZM95.2379 178.727L97.2838 178.747L97.3353 175.012L95.3048 174.992C93.9719 174.98 92.9892 175.621 92.9771 176.877C92.9647 178.163 93.9824 178.715 95.2379 178.727Z" fill="#FAFAFA"/>
<path d="M84.3082 168.632C87.2934 169.105 89.2232 171.781 88.745 174.797C88.2741 177.767 85.596 179.712 82.6261 179.241C79.6715 178.773 77.7417 176.097 78.2126 173.127C78.6908 170.111 81.3536 168.164 84.3082 168.632ZM84.0727 170.117C82.052 169.797 80.1622 171.223 79.82 173.382C79.4826 175.51 80.8255 177.433 82.8615 177.756C84.8976 178.079 86.8002 176.67 87.1376 174.542C87.4798 172.384 86.1241 170.442 84.0727 170.117Z" fill="#FAFAFA"/>
<path d="M75.8434 168.246L74.6801 177.565L73.189 177.04L74.368 168.236C74.4014 168.001 74.3644 167.873 74.2474 167.832C74.1305 167.79 74.0118 167.847 73.8856 168.066L69.806 174.467C69.2966 175.307 68.6553 175.541 67.9829 175.304C67.2958 175.062 66.9524 174.497 67.0671 173.519L67.8478 165.938C67.8615 165.713 67.8391 165.59 67.7075 165.544C67.5759 165.498 67.4814 165.579 67.38 165.774L62.9117 173.419L61.4205 172.893L66.1784 164.939C66.6578 164.139 67.3454 163.773 68.1494 164.056C68.9243 164.329 69.3004 164.988 69.2055 165.957L68.4084 173.63C68.3913 173.772 68.4145 173.846 68.4876 173.871C68.5461 173.892 68.6252 173.854 68.7008 173.733L72.8765 167.151C73.355 166.4 74.09 166.133 74.7917 166.38C75.5519 166.648 75.9572 167.317 75.8434 168.246Z" fill="#FAFAFA"/>
<path d="M48.7284 159.496C50.5095 156.771 53.632 156.442 56.3175 158.198L59.2625 160.123L53.58 168.816L50.5701 166.848C47.7808 165.025 47.0406 162.078 48.7284 159.496ZM50.0906 160.387C48.8863 162.229 49.4213 164.356 51.3674 165.629L53.0539 166.731L57.1504 160.465L55.5287 159.405C53.6346 158.166 51.3883 158.402 50.0906 160.387Z" fill="#FAFAFA"/>
<path d="M43.1393 161.714L41.9178 160.71L48.5103 152.686L49.7319 153.69L43.1393 161.714Z" fill="#FAFAFA"/>
<path d="M43.3025 147.37C45.3923 149.489 45.3035 152.821 43.1736 154.921C41.0878 156.978 37.7554 157.043 35.6548 154.913C34.4466 153.688 33.8671 151.909 34.4268 150.225L35.8599 150.618C35.5338 151.81 35.8652 153.007 36.7577 153.912C38.1944 155.369 40.5078 155.265 42.0528 153.741C43.6309 152.184 43.7454 149.894 42.2652 148.394C41.3944 147.511 40.3449 147.131 39.5772 147.191L37.8005 148.944L36.723 147.851L38.886 145.718C40.126 145.496 41.8767 145.925 43.3025 147.37Z" fill="#FAFAFA"/>
<path d="M30.5185 149.158L29.529 147.925L37.6286 141.425L38.6181 142.658L30.5185 149.158Z" fill="#FAFAFA"/>
<path d="M23.4899 139.184L24.7022 138.375L26.4732 141.032L33.902 136.08L34.7789 137.396L27.3502 142.348L29.1126 144.992L27.9003 145.8L23.4899 139.184Z" fill="#FAFAFA"/>
<path d="M32.1484 133.326L22.7165 134.886C21.7047 135.047 20.9485 134.577 20.5591 133.801C20.1628 133.012 20.2377 132.124 20.9714 131.409L27.8585 124.779L28.5816 126.22L26.6504 128.039L28.8335 132.354L31.4322 131.899L32.1484 133.326ZM22.5203 133.459L27.3505 132.613L25.5636 129.052L21.9919 132.406C21.7496 132.649 21.6945 132.885 21.8266 133.148C21.9657 133.425 22.1877 133.522 22.5203 133.459Z" fill="#FAFAFA"/>
<path d="M16.7668 124.711L25.2025 121.787L23.5123 116.91L24.889 116.433L26.6198 121.427C26.9649 122.423 26.5843 122.981 25.7495 123.271L17.2845 126.204L16.7668 124.711Z" fill="#FAFAFA"/>
<path d="M17.2181 105.901L18.5954 105.68L19.4457 110.975L18.0684 111.196L17.2181 105.901Z" fill="#FAFAFA"/>
<path d="M137.084 104.312C135.908 104.312 134.9 103.592 134.564 102.152L132.26 92.2399H134.492L136.652 101.696C136.724 101.984 136.82 102.128 137.084 102.128C137.276 102.128 137.42 101.96 137.468 101.744L139.388 94.0879C139.748 92.6479 140.564 91.9519 141.812 91.9519C143.06 91.9519 143.852 92.6239 144.212 94.0639L146.108 101.744C146.18 101.984 146.3 102.128 146.54 102.128C146.756 102.128 146.876 101.984 146.948 101.696L149.036 92.2399H151.244L149.012 102.152C148.676 103.592 147.692 104.312 146.516 104.312C145.292 104.312 144.476 103.592 144.14 102.176L142.22 94.3999C142.148 94.1599 142.028 94.0159 141.788 94.0159C141.572 94.0159 141.452 94.1599 141.404 94.3999L139.46 102.176C139.124 103.592 138.308 104.312 137.084 104.312Z" fill="#FAFAFA"/>
<path d="M125.114 104.288C121.562 104.288 118.826 101.504 118.826 98.0959C118.826 94.7119 121.586 91.9519 125.114 91.9519C128.666 91.9519 131.354 94.7359 131.354 98.0959C131.354 101.504 128.642 104.288 125.114 104.288ZM125.114 102.032C127.298 102.032 128.978 100.256 128.978 98.1199C128.978 95.9599 127.298 94.1839 125.114 94.1839C122.906 94.1839 121.202 95.9599 121.202 98.1199C121.202 100.256 122.906 102.032 125.114 102.032Z" fill="#FAFAFA"/>
<path d="M104.672 104H102.344V89.9361C102.344 88.4721 103.304 87.6321 104.528 87.6321C105.512 87.6321 106.184 88.0161 106.64 88.8561L113.408 101.504C113.48 101.72 113.528 101.816 113.672 101.816C113.768 101.816 113.792 101.768 113.792 101.624V87.9201H116.12V102.008C116.12 103.472 115.088 104.288 113.984 104.288C113.072 104.288 112.28 103.904 111.824 103.04L105.08 90.3681C105.032 90.1761 104.984 90.0801 104.864 90.0801C104.72 90.0801 104.672 90.1761 104.672 90.3681V104Z" fill="#FAFAFA"/>
<path d="M79.4724 104.312C78.2964 104.312 77.2884 103.592 76.9524 102.152L74.6484 92.2399H76.8804L79.0404 101.696C79.1124 101.984 79.2084 102.128 79.4724 102.128C79.6644 102.128 79.8084 101.96 79.8564 101.744L81.7764 94.0879C82.1364 92.6479 82.9524 91.9519 84.2004 91.9519C85.4484 91.9519 86.2404 92.6239 86.6004 94.0639L88.4964 101.744C88.5684 101.984 88.6884 102.128 88.9284 102.128C89.1444 102.128 89.2644 101.984 89.3364 101.696L91.4244 92.2399H93.6324L91.4004 102.152C91.0644 103.592 90.0804 104.312 88.9044 104.312C87.6804 104.312 86.8644 103.592 86.5284 102.176L84.6084 94.3999C84.5364 94.1599 84.4164 94.0159 84.1764 94.0159C83.9604 94.0159 83.8404 94.1599 83.7924 94.3999L81.8484 102.176C81.5124 103.592 80.6964 104.312 79.4724 104.312Z" fill="#FAFAFA"/>
<path d="M68.0408 104.264C64.4648 104.264 61.8008 101.672 61.8008 98.0481C61.8008 94.6641 64.2248 91.9041 67.7528 91.9041C71.3048 91.9041 73.5128 94.4721 73.5128 97.7601V98.7201H64.1048C64.3688 100.736 65.9048 102.152 68.0168 102.152C69.4568 102.152 70.7528 101.528 71.4488 100.232L73.2728 101.168C72.2408 103.184 70.3448 104.264 68.0408 104.264ZM64.2008 97.1841H71.1368C71.0408 95.3121 69.6728 94.0401 67.7288 94.0401C65.7368 94.0401 64.4408 95.4321 64.2008 97.1841Z" fill="#FAFAFA"/>
<path d="M57.9545 89.9121C57.0905 89.9121 56.3945 89.2161 56.3945 88.3521C56.3945 87.4881 57.0905 86.7681 57.9545 86.7681C58.8185 86.7681 59.4905 87.4881 59.4905 88.3521C59.4905 89.2161 58.8185 89.9121 57.9545 89.9121ZM56.7785 92.2401H59.1545V104H56.7785V92.2401Z" fill="#FAFAFA"/>
<path d="M47.1289 104.312C45.5449 104.312 44.4889 103.424 43.9369 101.672L39.7129 87.9199H42.2089L46.1929 101.048C46.3609 101.624 46.6489 101.912 47.1289 101.912C47.6089 101.912 47.8969 101.624 48.0649 101.048L52.0009 87.9199H54.5209L50.2969 101.672C49.7449 103.424 48.6649 104.312 47.1289 104.312Z" fill="#FAFAFA"/>
</g>
<defs>
<clipPath id="clip0_1572_14251">
<rect width="191" height="191" fill="white"/>
</clipPath>
</defs>
</svg>
