<svg width="191" height="191" viewBox="0 0 191 191" fill="none" xmlns="http://www.w3.org/2000/svg">
<g clip-path="url(#clip0_1572_14255)">
<circle cx="95.5" cy="95.5" r="95.5" fill="#D31F23"/>
<path d="M22.1387 97.2831L22.1298 98.7111L12.75 98.6524L12.7686 95.6705C12.7844 93.1505 13.9286 91.5196 16.1126 91.5333C18.3525 91.5473 19.4621 93.2203 19.447 95.6422L19.4368 97.2662L22.1387 97.2831ZM14.0849 95.6367L14.0749 97.2327L18.1068 97.2579L18.1168 95.6619C18.1264 94.1219 17.5314 93.0122 16.1034 93.0033C14.7314 92.9947 14.0948 94.0547 14.0849 95.6367Z" fill="white"/>
<path d="M13.1969 87.2091L21.2048 88.1582L21.7535 83.5286L23.0604 83.6835L22.4985 88.4243C22.3865 89.3697 21.857 89.6735 21.0646 89.5796L13.0288 88.6272L13.1969 87.2091Z" fill="white"/>
<path d="M23.2151 82.8564L15.7698 78.4829C14.9748 78.0093 14.7221 77.2457 14.9008 76.4823C15.0826 75.7053 15.6479 75.133 16.5705 75.0614L25.1833 74.4457L24.8515 75.8634L22.4596 76.0082L21.478 80.2644L23.5436 81.4524L23.2151 82.8564ZM16.4594 77.379L20.2996 79.5861L21.1194 76.0827L16.7019 76.343C16.3933 76.3714 16.2187 76.5031 16.1581 76.7621C16.0943 77.0348 16.1923 77.2302 16.4594 77.379Z" fill="white"/>
<path d="M21.9872 71.0476L16.3494 71.4051L16.8685 69.9701L22.0567 69.703C22.4119 69.6677 22.608 69.6196 22.6842 69.4089C22.7604 69.1983 22.6321 69.0179 22.3901 68.7815L18.5734 65.257L19.0972 63.8088L23.1921 67.7168C23.6724 68.1585 23.9172 68.6342 23.9671 69.1137L26.7844 70.1329L26.2987 71.4757L23.4813 70.4566C23.1494 70.798 22.6438 71.0022 21.9872 71.0476Z" fill="white"/>
<path d="M22.0367 57.5717L22.7083 56.3115L30.9861 60.7229L30.3145 61.9832L22.0367 57.5717Z" fill="white"/>
<path d="M33.1193 57.2795L32.3653 58.4089L25.5423 53.8534C24.832 53.3792 24.7355 52.6414 25.1319 52.0476C25.4507 51.5702 25.8546 51.3686 26.4098 51.4194L34.7381 52.2328C34.8662 52.2678 34.9283 52.2757 34.975 52.2058C35.0061 52.1592 34.9906 52.132 34.9207 52.0854L28.2724 47.6465L29.0264 46.5171L35.8611 51.0804C36.5713 51.5546 36.6329 52.3195 36.2753 52.8551C35.9799 53.2976 35.5371 53.5574 34.9702 53.4988L26.6381 52.666C26.5294 52.6271 26.4673 52.6193 26.4284 52.6775C26.3817 52.7474 26.4128 52.8017 26.5059 52.8639L33.1193 57.2795Z" fill="white"/>
<path d="M35.2558 38.9418L36.2525 39.8012L34.3694 41.9854L40.4769 47.251L39.5445 48.3325L33.4369 43.067L31.5629 45.2407L30.5662 44.3814L35.2558 38.9418Z" fill="white"/>
<path d="M44.5502 43.0099L43.5229 43.961L37.1507 37.0777L39.5444 34.8617C41.0033 33.5112 42.7618 33.1232 44.0743 34.541C44.9778 35.517 45.0382 36.7775 44.2627 37.877C45.0647 37.6305 45.8858 37.9197 47.0378 38.3604L48.8343 39.0439L47.7042 40.0901L46.0542 39.4618C44.8919 39.0306 44.0583 38.8102 43.0926 39.7042L42.2399 40.4936L44.5502 43.0099ZM40.4487 35.8179L39.0926 37.0733L41.3744 39.5587L42.7202 38.3128C43.6038 37.4949 43.8515 36.4642 43.0812 35.6321C42.2918 34.7794 41.2808 35.0475 40.4487 35.8179Z" fill="white"/>
<path d="M53.8554 35.6222C51.6183 37.1869 48.6858 36.6581 47.1051 34.398C45.5485 32.1723 46.0693 29.2284 48.2949 27.6718C50.5091 26.1232 53.4416 26.652 54.9982 28.8776C56.5789 31.1377 56.0696 34.0736 53.8554 35.6222ZM53.0771 34.5094C54.5915 33.4502 54.925 31.3377 53.7936 29.7201C52.6783 28.1254 50.5991 27.7174 49.0733 28.7846C47.5474 29.8518 47.1944 31.9608 48.3097 33.5555C49.4411 35.1731 51.5398 35.5846 53.0771 34.5094Z" fill="white"/>
<path d="M65.3766 23.3023L65.9012 24.4478L61.497 26.4647L60.9724 25.3191L65.3766 23.3023Z" fill="white"/>
<path d="M75.3358 25.0647L73.9567 25.4351L71.5236 16.3762L74.4036 15.6027C76.8373 14.949 78.7134 15.6193 79.2799 17.7286C79.8609 19.8919 78.5425 21.4057 76.2034 22.0339L74.6349 22.4552L75.3358 25.0647ZM74.7855 16.8627L73.2441 17.2767L74.29 21.1707L75.8313 20.7567C77.3186 20.3573 78.2306 19.489 77.8602 18.1099C77.5043 16.7848 76.3133 16.4524 74.7855 16.8627Z" fill="white"/>
<path d="M82.7294 13.7778L83.895 21.7571L88.508 21.0832L88.6983 22.3854L83.9744 23.0755C83.0324 23.2131 82.6014 22.7808 82.4861 21.9912L81.3164 13.9842L82.7294 13.7778Z" fill="white"/>
<path d="M89.5382 22.3196L91.8257 13.9933C92.0764 13.1025 92.7481 12.66 93.5317 12.634C94.3292 12.6076 95.0287 13.0047 95.3378 13.8769L98.1715 22.0335L96.7163 22.0818L95.9546 19.8097L91.5895 19.9684L90.9794 22.2719L89.5382 22.3196ZM93.071 14.3723L91.9382 18.6541L95.5342 18.535L94.1344 14.337C94.0267 14.0464 93.8542 13.9121 93.5883 13.9209C93.3085 13.9302 93.1452 14.0756 93.071 14.3723Z" fill="white"/>
<path d="M100.604 18.0513L98.7687 12.7086L100.29 12.8298L101.919 17.7628C102.047 18.0961 102.145 18.2724 102.369 18.2902C102.592 18.308 102.732 18.1366 102.896 17.8407L105.286 13.228L106.821 13.3504L104.135 18.3327C103.836 18.9128 103.442 19.2746 102.992 19.4495L102.754 22.436L101.331 22.3225L101.569 19.336C101.152 19.1061 100.821 18.6725 100.604 18.0513Z" fill="white"/>
<path d="M113.619 14.5212L115.012 14.8362L112.943 23.9851L111.55 23.6701L113.619 14.5212Z" fill="white"/>
<path d="M116.827 25.1344L115.539 24.7048L118.134 16.9221C118.405 16.112 119.091 15.8243 119.768 16.0502C120.313 16.2317 120.614 16.5682 120.711 17.1172L122.122 25.3652C122.122 25.498 122.131 25.56 122.211 25.5866C122.264 25.6043 122.286 25.5822 122.313 25.5025L124.842 17.919L126.13 18.3486L123.53 26.1446C123.26 26.9547 122.538 27.2158 121.927 27.0121C121.423 26.8438 121.055 26.4852 120.962 25.9229L119.569 17.6661C119.578 17.551 119.569 17.489 119.502 17.4668C119.423 17.4403 119.378 17.4845 119.343 17.5908L116.827 25.1344Z" fill="white"/>
<path d="M135.088 22.3766L134.52 23.5637L131.919 22.3192L128.439 29.5938L127.151 28.9776L130.631 21.703L128.042 20.4645L128.609 19.2774L135.088 22.3766Z" fill="white"/>
<path d="M133.599 32.4138L132.412 31.6712L137.388 23.7197L140.153 25.4501C141.839 26.5047 142.673 28.1004 141.648 29.7382C140.943 30.8656 139.742 31.2538 138.478 30.793C138.926 31.5026 138.861 32.3707 138.738 33.5979L138.548 35.5107L137.243 34.6938L137.417 32.9368C137.529 31.7022 137.524 30.84 136.408 30.1419L135.423 29.5255L133.599 32.4138ZM139.467 26.5731L137.901 25.5928L136.099 28.4455L137.654 29.4184C138.674 30.0571 139.734 30.0265 140.335 29.0652C140.952 28.0802 140.429 27.1747 139.467 26.5731Z" fill="white"/>
<path d="M143.163 39.4632C141.068 37.7126 140.812 34.7438 142.581 32.6275C144.323 30.5435 147.3 30.277 149.385 32.0186C151.458 33.7513 151.714 36.7201 149.972 38.8041C148.203 40.9204 145.236 41.1959 143.163 39.4632ZM144.034 38.4212C145.452 39.6062 147.578 39.3762 148.844 37.8615C150.092 36.3683 149.942 34.2547 148.514 33.0607C147.085 31.8666 144.957 32.077 143.709 33.5702C142.443 35.0849 142.594 37.2182 144.034 38.4212Z" fill="white"/>
<path d="M158.076 47.3336L157.11 48.1425L154 44.4287L154.966 43.6197L158.076 47.3336Z" fill="white"/>
<path d="M159.007 57.4071L158.289 56.1722L166.401 51.4619L167.898 54.0406C169.164 56.2199 169.006 58.2058 167.117 59.3025C165.18 60.4274 163.375 59.5491 162.159 57.4546L161.343 56.0503L159.007 57.4071ZM166.782 54.7378L165.98 53.3576L162.493 55.3824L163.295 56.7626C164.068 58.0943 165.144 58.7484 166.379 58.0313C167.565 57.3424 167.576 56.1059 166.782 54.7378Z" fill="white"/>
<path d="M171.823 61.5386L164.445 64.7931L166.327 69.0586L165.123 69.5897L163.196 65.2218C162.812 64.3507 163.113 63.8199 163.843 63.4979L171.247 60.232L171.823 61.5386Z" fill="white"/>
<path d="M165.408 70.3818L174.043 70.402C174.968 70.4099 175.571 70.9418 175.802 71.691C176.037 72.4537 175.838 73.2329 175.077 73.7602L167.952 78.6368L167.523 77.2454L169.515 75.9137L168.215 71.7435L165.833 71.7599L165.408 70.3818ZM174.004 71.7031L169.575 71.7347L170.635 75.1732L174.317 72.7199C174.57 72.5397 174.654 72.3379 174.576 72.0837C174.493 71.8161 174.31 71.6968 174.004 71.7031Z" fill="white"/>
<path d="M172.43 79.9471L177.109 76.7825L177.389 78.2827L173.051 81.1415C172.762 81.3519 172.618 81.4928 172.659 81.713C172.7 81.9332 172.902 82.0238 173.23 82.105L178.307 83.2099L178.589 84.7239L173.078 83.4292C172.44 83.2917 171.988 83.0057 171.702 82.6175L168.757 83.1662L168.495 81.7624L171.441 81.2136C171.554 80.7511 171.886 80.3189 172.43 79.9471Z" fill="white"/>
<path d="M179.23 91.5782L179.292 93.0049L169.92 93.4062L169.859 91.9795L179.23 91.5782Z" fill="white"/>
<path d="M169.831 97.4561L169.907 96.1003L178.098 96.5601C178.951 96.608 179.408 97.1946 179.368 97.9074C179.336 98.4805 179.091 98.8594 178.587 99.0975L170.999 102.626C170.871 102.661 170.813 102.685 170.808 102.769C170.805 102.825 170.832 102.841 170.916 102.845L178.898 103.294L178.822 104.649L170.617 104.189C169.764 104.141 169.322 103.513 169.359 102.87C169.388 102.339 169.638 101.89 170.156 101.653L177.757 98.1395C177.87 98.1178 177.928 98.093 177.932 98.0231C177.936 97.9392 177.882 97.9081 177.77 97.9018L169.831 97.4561Z" fill="white"/>
<path d="M177.314 114.328L176.019 114.096L176.528 111.257L168.591 109.833L168.843 108.428L176.78 109.852L177.287 107.027L178.582 107.259L177.314 114.328Z" fill="white"/>
<path d="M167.24 115.556L167.642 114.215L176.627 116.908L175.691 120.032C175.12 121.937 173.802 123.164 171.951 122.609C170.677 122.228 169.985 121.172 170.095 119.831C169.529 120.451 168.675 120.619 167.459 120.824L165.564 121.148L166.006 119.673L167.747 119.376C168.967 119.157 169.797 118.924 170.175 117.663L170.508 116.55L167.24 115.556ZM174.426 119.668L174.957 117.898L171.729 116.916L171.202 118.673C170.856 119.826 171.166 120.84 172.253 121.165C173.366 121.499 174.1 120.754 174.426 119.668Z" fill="white"/>
<path d="M162.968 126.642C164.105 124.16 166.902 123.13 169.409 124.279C171.878 125.41 172.92 128.212 171.79 130.681C170.665 133.138 167.868 134.167 165.399 133.036C162.891 131.888 161.843 129.098 162.968 126.642ZM164.203 127.207C163.434 128.887 164.216 130.878 166.011 131.7C167.78 132.51 169.78 131.809 170.555 130.116C171.33 128.423 170.566 126.426 168.797 125.615C167.002 124.793 164.984 125.502 164.203 127.207Z" fill="white"/>
<path d="M159.266 143.099L158.234 142.376L161.012 138.408L162.044 139.13L159.266 143.099Z" fill="white"/>
<path d="M149.791 146.624L150.791 145.605L157.485 152.176L155.396 154.304C153.631 156.102 151.675 156.477 150.116 154.947C148.517 153.378 148.885 151.405 150.581 149.676L151.719 148.517L149.791 146.624ZM154.428 153.412L155.546 152.273L152.668 149.449L151.55 150.588C150.471 151.687 150.126 152.898 151.146 153.898C152.125 154.859 153.32 154.541 154.428 153.412Z" fill="white"/>
<path d="M149.162 160.097L144.099 153.82L140.47 156.747L139.644 155.723L143.36 152.726C144.101 152.128 144.691 152.281 145.192 152.902L150.273 159.2L149.162 160.097Z" fill="white"/>
<path d="M138.955 156.207L141.233 164.536C141.471 165.43 141.119 166.154 140.458 166.575C139.786 167.005 138.982 167.02 138.271 166.427L131.674 160.856L132.901 160.072L134.715 161.638L138.389 159.276L137.739 156.983L138.955 156.207ZM139.968 164.845L138.759 160.584L135.727 162.52L139.072 165.418C139.312 165.613 139.529 165.641 139.753 165.497C139.989 165.347 140.056 165.138 139.968 164.845Z" fill="white"/>
<path d="M131.594 165.52L135.883 169.197L134.51 169.863L130.606 166.435C130.327 166.213 130.153 166.111 129.951 166.208C129.75 166.306 129.716 166.525 129.724 166.863L130.001 172.051L128.615 172.723L128.407 167.066C128.371 166.415 128.527 165.903 128.826 165.525L127.518 162.829L128.803 162.206L130.111 164.902C130.587 164.888 131.092 165.095 131.594 165.52Z" fill="white"/>
<path d="M122.16 175.143L120.8 175.578L117.945 166.643L119.305 166.208L122.16 175.143Z" fill="white"/>
<path d="M114.014 167.622L115.342 167.339L117.051 175.363C117.228 176.198 116.783 176.794 116.084 176.943C115.523 177.062 115.093 176.925 114.731 176.501L109.333 170.107C109.266 169.992 109.226 169.943 109.144 169.961C109.09 169.973 109.082 170.003 109.099 170.085L110.764 177.904L109.436 178.187L107.724 170.149C107.546 169.313 108.036 168.723 108.666 168.588C109.186 168.478 109.685 168.601 110.05 169.038L115.437 175.449C115.488 175.553 115.527 175.602 115.595 175.587C115.677 175.569 115.693 175.509 115.67 175.399L114.014 167.622Z" fill="white"/>
<path d="M99.6801 179.261L99.5667 177.95L102.44 177.701L101.746 169.667L103.168 169.544L103.863 177.578L106.722 177.331L106.835 178.642L99.6801 179.261Z" fill="white"/>
<path d="M95.8683 169.858L97.2678 169.895L97.0215 179.272L93.7606 179.186C91.7733 179.134 90.2437 178.183 90.2945 176.252C90.3294 174.922 91.1665 173.978 92.4894 173.733C91.7432 173.349 91.3576 172.569 90.8408 171.449L90.0323 169.705L91.5718 169.745L92.314 171.347C92.8447 172.468 93.2875 173.208 94.603 173.242L95.7646 173.273L95.8683 169.858ZM93.7812 177.87L95.6285 177.919L95.7311 174.546L93.8978 174.498C92.6942 174.466 91.797 175.031 91.7673 176.165C91.7367 177.326 92.6476 177.84 93.7812 177.87Z" fill="white"/>
<path d="M84.0478 168.652C86.742 169.092 88.4736 171.517 88.0287 174.239C87.5906 176.919 85.1633 178.665 82.4829 178.226C79.8163 177.791 78.0848 175.366 78.5228 172.685C78.9677 169.963 81.3812 168.216 84.0478 168.652ZM83.8288 169.992C82.0049 169.694 80.292 170.974 79.9736 172.922C79.6597 174.843 80.8643 176.586 82.702 176.886C84.5396 177.187 86.2641 175.922 86.578 174.002C86.8964 172.054 85.6802 170.294 83.8288 169.992Z" fill="white"/>
<path d="M76.0128 167.127L77.3792 167.542L74.6543 176.518L71.8009 175.651C69.3896 174.919 68.1516 173.358 68.7861 171.269C69.4369 169.125 71.3564 168.537 73.6739 169.241L75.2279 169.713L76.0128 167.127ZM72.143 174.38L73.6702 174.844L74.8415 170.985L73.3143 170.522C71.8407 170.074 70.6076 170.329 70.1927 171.696C69.7941 173.008 70.6292 173.92 72.143 174.38Z" fill="white"/>
<path d="M63.7726 172.801L66.9995 165.41L62.7271 163.545L63.2537 162.339L67.6288 164.249C68.5013 164.63 68.6388 165.225 68.3194 165.956L65.0813 173.372L63.7726 172.801Z" fill="white"/>
<path d="M62.5062 161.951L56.1667 167.814C55.4834 168.438 54.6794 168.459 54.0002 168.067C53.309 167.668 52.9246 166.962 53.1228 166.058L55.0238 157.635L56.2851 158.362L55.732 160.694L59.5227 162.865L61.2571 161.231L62.5062 161.951ZM55.3094 166.834L58.5325 163.796L55.4159 161.999L54.3877 166.303C54.3257 166.606 54.4013 166.812 54.6317 166.944C54.8742 167.084 55.0897 167.047 55.3094 166.834Z" fill="white"/>
<path d="M50.8486 159.717L49.5665 165.218L48.342 164.308L49.5811 159.263C49.6497 158.912 49.66 158.711 49.4803 158.577C49.3005 158.443 49.0908 158.514 48.7947 158.678L44.32 161.317L43.0842 160.398L48.0062 157.603C48.5677 157.27 49.0937 157.173 49.5672 157.263L51.3549 154.859L52.5009 155.711L50.7132 158.116C50.9445 158.532 50.9943 159.075 50.8486 159.717Z" fill="white"/>
<path d="M37.9671 155.806L36.9517 154.802L43.5472 148.133L44.5625 149.137L37.9671 155.806Z" fill="white"/>
<path d="M40.8576 145.104L41.7243 146.149L35.408 151.385C34.7505 151.93 34.0159 151.811 33.5603 151.262C33.194 150.82 33.1162 150.375 33.3237 149.857L36.4846 142.109C36.5548 141.997 36.58 141.939 36.5264 141.875C36.4907 141.832 36.4602 141.839 36.3955 141.892L30.2409 146.994L29.3743 145.948L35.7013 140.704C36.3588 140.159 37.1095 140.319 37.5204 140.814C37.8599 141.224 37.9823 141.723 37.764 142.249L34.5835 149.995C34.5152 150.088 34.4899 150.145 34.5346 150.199C34.5882 150.264 34.6492 150.25 34.7354 150.178L40.8576 145.104Z" fill="white"/>
<path d="M23.8964 137.815L25.0047 137.105L26.5597 139.534L33.3511 135.186L34.1211 136.389L27.3297 140.737L28.8771 143.154L27.7688 143.863L23.8964 137.815Z" fill="white"/>
<path d="M30.4542 130.069L31.0705 131.326L22.648 135.455L21.2122 132.526C20.3371 130.741 20.4702 128.945 22.205 128.095C23.3992 127.509 24.624 127.813 25.4547 128.872C25.4488 128.032 25.9615 127.329 26.7142 126.352L27.8846 124.827L28.5624 126.21L27.487 127.61C26.7404 128.6 26.2901 129.335 26.8693 130.517L27.3808 131.56L30.4542 130.069ZM22.3877 131.934L23.2011 133.594L26.2368 132.121L25.4296 130.474C24.8996 129.393 23.9834 128.86 22.9652 129.359C21.9218 129.871 21.8885 130.916 22.3877 131.934Z" fill="white"/>
<path d="M26.0526 119.034C26.907 121.627 25.5565 124.283 22.9371 125.146C20.3576 125.996 17.6881 124.65 16.838 122.071C15.9923 119.505 17.3428 116.848 19.9224 115.998C22.5418 115.135 25.2069 116.468 26.0526 119.034ZM24.7628 119.459C24.1844 117.704 22.2573 116.777 20.3825 117.394C18.5342 118.003 17.545 119.877 18.1278 121.646C18.7106 123.414 20.6288 124.359 22.477 123.75C24.3518 123.132 25.35 121.241 24.7628 119.459Z" fill="white"/>
<path d="M17.5814 104.446L18.8298 104.275L19.4875 109.074L18.2392 109.245L17.5814 104.446Z" fill="white"/>
<path d="M113.733 96.7999L109.869 87.9199H112.485L115.941 96.1279C116.205 96.6799 116.397 96.9679 116.781 96.9679C117.165 96.9679 117.381 96.6559 117.621 96.1279L121.077 87.9199H123.717L119.805 96.7999C119.373 97.8319 118.749 98.5039 118.005 98.8639V104H115.557V98.8639C114.813 98.5279 114.189 97.8319 113.733 96.7999Z" fill="white"/>
<path d="M95.7832 104L100.175 89.8641C100.655 88.3521 101.831 87.6321 103.175 87.6321C104.543 87.6321 105.719 88.3521 106.199 89.8641L110.591 104H108.095L106.919 100.064L99.4312 100.088L98.2552 104H95.7832ZM102.287 90.5841L100.103 97.8561H106.271L104.111 90.5841C103.943 90.0801 103.655 89.8401 103.199 89.8401C102.719 89.8401 102.431 90.0801 102.287 90.5841Z" fill="white"/>
<path d="M86.8191 87.9199V101.744H94.8111V104H86.6271C84.9951 104 84.3711 103.16 84.3711 101.792V87.9199H86.8191Z" fill="white"/>
<path d="M71.8777 104H69.4297V87.9199H74.5417C78.8617 87.9199 81.6697 89.8639 81.6697 93.6079C81.6697 97.4479 78.8137 99.3679 74.6617 99.3679H71.8777V104ZM74.6137 90.1759H71.8777V97.0879H74.6137C77.2537 97.0879 79.1497 96.0559 79.1497 93.6079C79.1497 91.2559 77.3257 90.1759 74.6137 90.1759Z" fill="white"/>
</g>
<defs>
<clipPath id="clip0_1572_14255">
<rect width="191" height="191" fill="white"/>
</clipPath>
</defs>
</svg>
