<svg width="191" height="191" viewBox="0 0 191 191" fill="none" xmlns="http://www.w3.org/2000/svg">
<g clip-path="url(#clip0_1572_14259)">
<circle cx="95.5" cy="95.5" r="95.5" fill="#D30006"/>
<path d="M16.2391 92.0267L17.4989 92.0526L17.3995 96.8956L16.1398 96.8697L16.2391 92.0267Z" fill="white"/>
<path d="M22.1835 83.7334L21.9101 85.0636L13.8741 83.4117C13.0376 83.2397 12.6704 82.5925 12.8142 81.8931C12.9298 81.3309 13.2281 80.992 13.7616 80.8301L21.7834 78.4486C21.9153 78.4328 21.9758 78.4166 21.9927 78.3344C22.004 78.2795 21.9794 78.2602 21.8971 78.2432L14.0668 76.6336L14.3403 75.3035L22.39 76.9582C23.2265 77.1301 23.5715 77.8156 23.4418 78.4464C23.3347 78.9675 23.0223 79.375 22.475 79.534L14.4423 81.8991C14.327 81.904 14.2665 81.9201 14.2524 81.9887C14.2355 82.071 14.2847 82.1097 14.3944 82.1322L22.1835 83.7334Z" fill="white"/>
<path d="M26.3855 68.3878L24.6645 73.3477C24.3478 74.2603 23.7702 74.4303 23.0163 74.1687L16.5882 71.9382C15.8343 71.6766 15.4862 71.1853 15.8028 70.2727L17.4917 65.4054L18.7218 65.8322L17.0696 70.5937L19.6487 71.4887L21.2091 66.9917L22.4392 67.4185L20.8788 71.9155L23.4712 72.815L25.1555 67.9609L26.3855 68.3878Z" fill="white"/>
<path d="M27.5972 65.7025L26.827 67.2426L24.711 63.5235C24.4168 63.0163 24.1726 62.722 23.8596 62.5655C23.534 62.4027 23.1458 62.3964 22.5823 62.459L18.4813 62.9596L19.2265 61.4695L22.7264 61.044C23.1459 61.019 23.5341 61.0253 23.8972 61.1129L24.2479 60.4117C23.9599 60.1738 23.7157 59.8795 23.4903 59.5164L21.7249 56.4734L22.4763 54.9708L24.5297 58.5648C24.8177 59.0531 25.0681 59.3349 25.3937 59.4977C25.7067 59.6542 26.0886 59.7044 26.6584 59.6293L30.9096 59.0786L30.1457 60.6062L26.602 61.0568C26.1699 61.1068 25.7755 61.0818 25.4124 60.9941L25.0617 61.6953C25.3497 61.9332 25.6064 62.2338 25.8255 62.6094L27.5972 65.7025Z" fill="white"/>
<path d="M27.3219 47.3543L28.422 48.0766L26.8393 50.4874L33.5804 54.913L32.7967 56.1067L26.0556 51.6812L24.4805 54.0804L23.3804 53.3581L27.3219 47.3543Z" fill="white"/>
<path d="M39.8036 46.909L38.8441 47.9284L32.0138 41.4995L34.2495 39.1242C35.6121 37.6765 37.3398 37.1687 38.7466 38.4928C39.7151 39.4044 39.862 40.6578 39.1639 41.808C39.9471 41.5069 40.7861 41.739 41.9657 42.0995L43.8049 42.6579L42.7494 43.7793L41.0601 43.2659C39.8709 42.9156 39.0242 42.7531 38.1222 43.7113L37.3258 44.5575L39.8036 46.909ZM35.2174 40.0159L33.9508 41.3616L36.3981 43.6843L37.6551 42.3488C38.4803 41.4721 38.6566 40.4268 37.8309 39.6496C36.9847 38.8532 35.9946 39.1902 35.2174 40.0159Z" fill="white"/>
<path d="M50.3918 37.0243L46.3632 40.3907C45.6219 41.0101 45.0392 40.8585 44.5275 40.2461L40.1646 35.025C39.6529 34.4127 39.6073 33.8122 40.3486 33.1928L44.302 29.8893L45.1369 30.8884L41.2694 34.1201L43.0199 36.215L46.6725 33.1628L47.5074 34.1619L43.8548 37.2141L45.6143 39.3197L49.557 36.0252L50.3918 37.0243Z" fill="white"/>
<path d="M55.0948 34.0799C54.3179 34.58 53.5195 34.4778 52.6956 33.7927L46.2819 28.3809L47.5062 27.5929L53.6052 32.7744C53.8695 33.0039 54.1016 33.0542 54.3371 32.9027C54.5725 32.7511 54.6229 32.5189 54.5234 32.1833L52.3092 24.5013L53.5452 23.7057L55.8152 31.7847C56.0976 32.8184 55.8483 33.5949 55.0948 34.0799Z" fill="white"/>
<path d="M55.9058 22.3808L57.1708 21.7182L61.5234 30.0271L60.2585 30.6898L55.9058 22.3808Z" fill="white"/>
<path d="M70.1418 26.3509L65.2814 28.3355C64.3871 28.7007 63.8778 28.3794 63.5761 27.6406L61.004 21.3415C60.7023 20.6027 60.8411 20.0168 61.7354 19.6516L66.5051 17.704L66.9973 18.9094L62.3313 20.8146L63.3634 23.342L67.7701 21.5426L68.2623 22.748L63.8556 24.5474L64.8929 27.0878L69.6496 25.1455L70.1418 26.3509Z" fill="white"/>
<path d="M72.8179 24.4361L69.0999 16.8119L70.4872 16.4736L73.9393 23.7159C74.0298 23.91 74.121 23.9886 74.2298 23.9621C74.3387 23.9356 74.4004 23.8341 74.3881 23.6065L74.3158 16.7504C74.287 15.864 74.6565 15.3704 75.2822 15.2179C75.9215 15.062 76.4599 15.3198 76.8559 16.1166L80.0055 22.2367C80.1063 22.4138 80.184 22.4958 80.3064 22.4659C80.4288 22.4361 80.46 22.3276 80.4407 22.1305L80.049 14.1419L81.4364 13.8036L81.7614 22.1688C81.7939 23.011 81.4541 23.6271 80.7061 23.8095C79.9852 23.9853 79.3758 23.6727 78.9694 22.8928L75.7864 16.6944C75.7293 16.5787 75.6753 16.5342 75.6073 16.5508C75.5528 16.5641 75.5117 16.6317 75.5144 16.7608L75.6026 23.8003C75.6115 24.6051 75.1872 25.1697 74.5343 25.3289C73.827 25.5014 73.1904 25.1955 72.8179 24.4361Z" fill="white"/>
<path d="M88.3396 22.5868C86.7636 22.7252 85.3763 22.1303 84.7057 20.8962L85.8536 20.2051C86.2873 20.9822 87.1202 21.3447 88.222 21.2479C89.3098 21.1524 90.1012 20.5629 90.0204 19.6424C89.9297 18.6104 88.9655 18.5124 87.8453 18.3999C86.4123 18.2447 84.6285 17.9376 84.4546 15.9573C84.3186 14.4092 85.6243 13.114 87.3955 12.9584C88.818 12.8335 90.1459 13.3914 90.8165 14.6255L89.6849 15.3433C89.241 14.6093 88.4881 14.1976 87.4561 14.2882C86.5077 14.3715 85.7897 14.9968 85.8595 15.7917C85.9477 16.7958 86.9575 16.932 88.1067 17.0559C89.5259 17.2123 91.2677 17.5231 91.4417 19.5035C91.5862 21.1492 90.2223 22.4214 88.3396 22.5868Z" fill="white"/>
<path d="M103.429 17.5831L103.333 18.8394L98.5032 18.4722L98.5987 17.2159L103.429 17.5831Z" fill="white"/>
<path d="M115.375 24.998L114.085 24.575L116.64 16.7792C116.906 15.9676 117.591 15.6765 118.27 15.8989C118.815 16.0776 119.118 16.4126 119.218 16.9611L120.671 25.2018C120.672 25.3346 120.681 25.3965 120.761 25.4227C120.814 25.4401 120.836 25.4179 120.862 25.3381L123.352 17.7418L124.643 18.1648L122.083 25.9739C121.817 26.7854 121.097 27.0502 120.485 26.8496C119.979 26.6839 119.61 26.3272 119.514 25.7654L118.078 17.5158C118.087 17.4006 118.078 17.3387 118.011 17.3169C117.931 17.2907 117.887 17.3352 117.852 17.4416L115.375 24.998Z" fill="white"/>
<path d="M130.139 30.9328L125.411 28.6496C124.542 28.2295 124.44 27.6361 124.787 26.9175L127.746 20.7906C128.093 20.072 128.621 19.783 129.491 20.2031L134.13 22.4436L133.564 23.616L129.025 21.4242L127.838 23.8825L132.124 25.9526L131.558 27.125L127.272 25.055L126.079 27.5259L130.705 29.7603L130.139 30.9328Z" fill="white"/>
<path d="M132.671 32.4399L131.226 31.5027L135.158 29.8147C135.695 29.5789 136.015 29.3691 136.205 29.0755C136.403 28.7701 136.453 28.385 136.454 27.8181L136.414 23.6869L137.811 24.5936L137.844 28.1191C137.822 28.5388 137.772 28.9238 137.645 29.2749L138.302 29.7016C138.571 29.4419 138.891 29.2321 139.277 29.0487L142.497 27.6337L143.907 28.548L140.106 30.1877C139.589 30.4194 139.281 30.6368 139.083 30.9422C138.892 31.2358 138.8 31.6098 138.811 32.1844L138.884 36.4705L137.451 35.5409L137.399 31.969C137.397 31.5341 137.466 31.145 137.594 30.7939L136.936 30.3672C136.667 30.6268 136.34 30.8484 135.942 31.0242L132.671 32.4399Z" fill="white"/>
<path d="M150.935 34.2147L150.095 35.2273L147.876 33.3851L142.725 39.5895L141.626 38.6773L146.777 32.4729L144.569 30.6396L145.409 29.6271L150.935 34.2147Z" fill="white"/>
<path d="M149.982 46.6698L149.075 45.6037L156.218 39.5245L158.332 42.0087C159.621 43.5227 159.935 45.2959 158.463 46.548C157.45 47.41 156.189 47.4177 155.122 46.5969C155.335 47.4086 155.012 48.2168 154.524 49.3494L153.766 51.1158L152.768 49.943L153.464 48.3207C153.944 47.1774 154.199 46.3537 153.346 45.3515L152.593 44.4666L149.982 46.6698ZM157.339 42.8722L156.141 41.4649L153.563 43.6409L154.751 45.0376C155.532 45.9545 156.551 46.2451 157.415 45.5102C158.3 44.7571 158.074 43.7359 157.339 42.8722Z" fill="white"/>
<path d="M158.613 58.3009L155.729 53.9144C155.198 53.1072 155.415 52.5456 156.082 52.1071L161.767 48.3688C162.433 47.9303 163.035 47.9535 163.566 48.7607L166.397 53.0654L165.309 53.7807L162.54 49.5696L160.259 51.0696L162.874 55.0467L161.786 55.7621L159.171 51.7849L156.878 53.2926L159.701 57.5856L158.613 58.3009Z" fill="white"/>
<path d="M161.015 63.3032C160.604 62.4755 160.794 61.6935 161.566 60.9507L167.657 55.1773L168.304 56.4815L162.478 61.9677C162.22 62.2048 162.144 62.43 162.269 62.6808C162.393 62.9316 162.618 63.0074 162.963 62.9458L170.843 61.598L171.497 62.9148L163.216 64.2739C162.157 64.4398 161.413 64.1058 161.015 63.3032Z" fill="white"/>
<path d="M172.566 65.4752L173.075 66.8096L164.309 70.1487L163.801 68.8143L172.566 65.4752Z" fill="white"/>
<path d="M167.009 79.1217L165.567 74.0737C165.302 73.1449 165.677 72.6737 166.444 72.4545L172.986 70.5853C173.753 70.3661 174.321 70.568 174.586 71.4969L176.001 76.4506L174.75 76.8083L173.365 71.9622L170.74 72.7122L172.048 77.2891L170.796 77.6468L169.488 73.0699L166.85 73.8237L168.261 78.764L167.009 79.1217Z" fill="white"/>
<path d="M168.612 81.9964L176.609 79.1658L176.788 80.5825L169.201 83.1921C168.998 83.2601 168.909 83.3418 168.923 83.4529C168.937 83.5641 169.031 83.6369 169.259 83.6505L176.079 84.3551C176.963 84.4269 177.411 84.85 177.492 85.4889C177.575 86.1417 177.257 86.6474 176.421 86.9507L169.983 89.3869C169.796 89.467 169.706 89.5348 169.722 89.6598C169.737 89.7848 169.842 89.8281 170.04 89.8313L178.021 90.3469L178.2 91.7636L169.852 91.1391C169.012 91.076 168.438 90.6687 168.341 89.9048C168.248 89.1686 168.628 88.5986 169.449 88.2832L175.968 85.8226C176.089 85.779 176.14 85.7303 176.131 85.6609C176.124 85.6053 176.061 85.5568 175.933 85.5448L168.929 84.8352C168.128 84.7529 167.615 84.2674 167.531 83.6007C167.44 82.8784 167.816 82.2805 168.612 81.9964Z" fill="white"/>
<path d="M168.697 97.6303C168.736 96.0488 169.483 94.7368 170.784 94.2089L171.342 95.427C170.521 95.7708 170.068 96.5579 170.041 97.6635C170.014 98.7552 170.511 99.6077 171.434 99.6306C172.47 99.6562 172.675 98.709 172.913 97.6086C173.228 96.2019 173.733 94.4639 175.72 94.513C177.274 94.5515 178.414 95.9941 178.37 97.7716C178.335 99.1992 177.632 100.456 176.33 100.984L175.744 99.7792C176.523 99.4204 177.017 98.7184 177.042 97.6827C177.066 96.731 176.525 95.9474 175.727 95.9277C174.719 95.9027 174.471 96.8909 174.219 98.019C173.904 99.4116 173.4 101.108 171.413 101.059C169.761 101.018 168.65 99.5197 168.697 97.6303Z" fill="white"/>
<path d="M171.987 113.185L170.749 112.95L171.653 108.191L172.891 108.426L171.987 113.185Z" fill="white"/>
<path d="M164.734 120.37L165.23 119.105L172.868 122.098C173.663 122.41 173.915 123.11 173.655 123.775C173.445 124.309 173.094 124.593 172.54 124.662L164.231 125.646C164.098 125.639 164.036 125.645 164.005 125.723C163.985 125.775 164.006 125.798 164.084 125.829L171.527 128.745L171.031 130.01L163.38 127.011C162.585 126.7 162.361 125.966 162.596 125.366C162.79 124.871 163.167 124.522 163.734 124.459L172.051 123.493C172.166 123.507 172.228 123.502 172.254 123.437C172.284 123.358 172.242 123.312 172.138 123.271L164.734 120.37Z" fill="white"/>
<path d="M157.964 134.77L160.517 130.182C160.987 129.338 161.585 129.27 162.282 129.658L168.228 132.967C168.925 133.355 169.183 133.899 168.714 134.743L166.208 139.245L165.071 138.612L167.521 134.208L165.136 132.88L162.821 137.04L161.684 136.407L163.998 132.247L161.6 130.913L159.102 135.403L157.964 134.77Z" fill="white"/>
<path d="M156.317 137.213L157.333 135.822L158.8 139.842C159.005 140.391 159.197 140.722 159.479 140.929C159.773 141.144 160.155 141.214 160.721 141.247L164.848 141.436L163.865 142.782L160.343 142.618C159.925 142.573 159.544 142.502 159.2 142.355L158.738 142.988C158.982 143.27 159.174 143.601 159.335 143.997L160.569 147.291L159.578 148.648L158.152 144.762C157.949 144.232 157.749 143.913 157.456 143.698C157.173 143.491 156.805 143.378 156.23 143.357L151.947 143.192L152.955 141.813L156.524 141.959C156.958 141.982 157.343 142.072 157.686 142.219L158.149 141.586C157.905 141.304 157.702 140.965 157.548 140.558L156.317 137.213Z" fill="white"/>
<path d="M153.495 155.355L152.534 154.457L154.502 152.35L148.61 146.845L149.584 145.801L155.477 151.306L157.436 149.209L158.398 150.107L153.495 155.355Z" fill="white"/>
<path d="M141.124 153.684L142.239 152.837L147.915 160.304L145.319 162.278C143.736 163.481 141.948 163.697 140.779 162.159C139.974 161.1 140.036 159.84 140.914 158.821C140.092 158.988 139.303 158.621 138.199 158.071L136.477 157.217L137.703 156.285L139.284 157.07C140.399 157.612 141.208 157.912 142.255 157.115L143.18 156.412L141.124 153.684ZM144.511 161.239L145.982 160.121L143.951 157.426L142.491 158.536C141.533 159.265 141.187 160.267 141.873 161.169C142.576 162.094 143.608 161.925 144.511 161.239Z" fill="white"/>
<path d="M129.031 161.651L133.574 159.019C134.41 158.535 134.958 158.783 135.358 159.474L138.77 165.361C139.17 166.051 139.113 166.65 138.277 167.135L133.819 169.718L133.166 168.591L137.527 166.064L136.158 163.702L132.04 166.089L131.387 164.963L135.505 162.576L134.13 160.202L129.684 162.778L129.031 161.651Z" fill="white"/>
<path d="M123.9 163.762C124.749 163.4 125.519 163.635 126.216 164.448L131.63 170.861L130.291 171.432L125.149 165.299C124.927 165.029 124.706 164.94 124.449 165.05C124.191 165.16 124.103 165.38 124.144 165.728L125.036 173.673L123.684 174.249L122.804 165.904C122.699 164.837 123.075 164.114 123.9 163.762Z" fill="white"/>
<path d="M121.078 175.168L119.717 175.6L116.877 166.66L118.238 166.228L121.078 175.168Z" fill="white"/>
<path d="M107.764 168.84L112.887 167.691C113.83 167.48 114.278 167.882 114.453 168.66L115.941 175.3C116.116 176.078 115.882 176.633 114.939 176.844L109.912 177.971L109.627 176.701L114.545 175.598L113.948 172.934L109.303 173.976L109.018 172.705L113.663 171.664L113.063 168.986L108.049 170.11L107.764 168.84Z" fill="white"/>
<path d="M104.802 170.275L107.168 178.421L105.743 178.518L103.575 170.793C103.519 170.587 103.442 170.494 103.33 170.501C103.219 170.509 103.141 170.598 103.114 170.825L102.018 177.593C101.895 178.471 101.447 178.895 100.805 178.939C100.148 178.983 99.6615 178.638 99.4069 177.785L97.3453 171.218C97.2761 171.026 97.2136 170.932 97.0879 170.941C96.9621 170.95 96.9129 171.051 96.8983 171.249L95.9242 179.187L94.4995 179.284L95.6035 170.986C95.7149 170.151 96.1546 169.601 96.9228 169.549C97.663 169.498 98.2103 169.91 98.4779 170.748L100.559 177.398C100.596 177.522 100.641 177.575 100.711 177.57C100.767 177.566 100.819 177.506 100.839 177.379L101.95 170.427C102.078 169.632 102.593 169.148 103.263 169.103C103.989 169.053 104.565 169.463 104.802 170.275Z" fill="white"/>
<path d="M89.1897 169.478C90.7669 169.601 92.0374 170.416 92.4956 171.744L91.2496 172.236C90.9498 171.399 90.1879 170.904 89.0852 170.818C87.9965 170.733 87.1188 171.184 87.047 172.105C86.9665 173.138 87.9015 173.394 88.9879 173.689C90.3758 174.078 92.0846 174.675 91.9302 176.657C91.8094 178.206 90.3083 179.269 88.5357 179.13C87.112 179.019 85.8941 178.25 85.4358 176.923L86.6701 176.401C86.9871 177.198 87.662 177.728 88.6949 177.809C89.644 177.883 90.4552 177.384 90.5172 176.589C90.5955 175.584 89.6219 175.283 88.5087 174.972C87.1347 174.584 85.4678 173.99 85.6223 172.008C85.7506 170.361 87.3054 169.331 89.1897 169.478Z" fill="white"/>
<path d="M73.4745 171.902L73.7791 170.679L78.4794 171.85L78.1749 173.073L73.4745 171.902Z" fill="white"/>
<path d="M66.7164 164.233L67.9506 164.8L64.5278 172.256C64.1715 173.032 63.4581 173.244 62.8092 172.946C62.2876 172.706 62.0248 172.339 61.9874 171.783L61.4776 163.431C61.492 163.299 61.4899 163.236 61.4136 163.201C61.3627 163.178 61.3383 163.197 61.3033 163.274L57.9681 170.539L56.7339 169.972L60.1625 162.503C60.5188 161.727 61.2645 161.546 61.8498 161.814C62.3333 162.036 62.6597 162.433 62.6912 163.002L63.1824 171.361C63.1612 171.475 63.1632 171.537 63.2269 171.566C63.3032 171.601 63.352 171.562 63.3987 171.46L66.7164 164.233Z" fill="white"/>
<path d="M52.7232 156.66L57.16 159.467C57.9764 159.983 58.0103 160.584 57.5836 161.259L53.9463 167.009C53.5197 167.683 52.9619 167.91 52.1456 167.394L47.7916 164.64L48.4876 163.539L52.747 166.234L54.2064 163.926L50.1837 161.382L50.8797 160.281L54.9024 162.826L56.3693 160.507L52.0272 157.76L52.7232 156.66Z" fill="white"/>
<path d="M50.3777 154.876L51.7076 155.97L47.6106 157.205C47.0506 157.379 46.7093 157.551 46.487 157.821C46.2558 158.102 46.1632 158.48 46.0987 159.043L45.6732 163.152L44.3865 162.094L44.7513 158.587C44.8204 158.173 44.913 157.796 45.0793 157.461L44.4739 156.963C44.1777 157.191 43.8365 157.363 43.4322 157.502L40.0725 158.545L38.775 157.478L42.7361 156.277C43.2763 156.105 43.6068 155.924 43.838 155.642C44.0604 155.372 44.1943 155.011 44.248 154.439L44.6581 150.172L45.9772 151.257L45.6271 154.812C45.5796 155.244 45.4673 155.623 45.301 155.958L45.9065 156.456C46.2026 156.228 46.5527 156.045 46.9678 155.915L50.3777 154.876Z" fill="white"/>
<path d="M32.4282 151.04L33.3787 150.13L35.3733 152.213L41.1978 146.636L42.1854 147.667L36.3608 153.244L38.3457 155.317L37.3952 156.227L32.4282 151.04Z" fill="white"/>
<path d="M34.7892 138.78L35.5708 139.941L27.7886 145.178L25.9675 142.472C24.8577 140.822 24.7451 139.025 26.348 137.946C27.4515 137.204 28.7062 137.338 29.6732 138.274C29.5532 137.443 29.9653 136.677 30.5781 135.606L31.53 133.936L32.3898 135.214L31.5149 136.748C30.91 137.83 30.5639 138.619 31.2986 139.711L31.9473 140.675L34.7892 138.78ZM27.0515 141.725L28.0832 143.258L30.8903 141.386L29.8664 139.865C29.1943 138.866 28.214 138.462 27.2732 139.096C26.3091 139.744 26.4185 140.784 27.0515 141.725Z" fill="white"/>
<path d="M27.5164 126.256L29.8933 130.937C30.3307 131.798 30.0522 132.332 29.3407 132.694L23.274 135.774C22.5625 136.135 21.9671 136.045 21.5297 135.184L19.1972 130.59L20.3581 130.001L22.64 134.495L25.0741 133.259L22.9191 129.014L24.08 128.425L26.235 132.669L28.6817 131.427L26.3555 126.846L27.5164 126.256Z" fill="white"/>
<path d="M25.706 121.011C26.0183 121.881 25.739 122.636 24.8859 123.284L18.1688 128.314L17.6767 126.944L24.0986 122.168C24.3817 121.963 24.483 121.748 24.3884 121.484C24.2938 121.221 24.0789 121.119 23.7295 121.141L15.7462 121.568L15.2493 120.185L23.632 119.792C24.7027 119.75 25.4032 120.168 25.706 121.011Z" fill="white"/>
<path d="M14.4868 117.552L14.1313 116.169L23.216 113.833L23.5715 115.216L14.4868 117.552Z" fill="white"/>
<path d="M21.5448 104.614L22.408 109.792C22.5669 110.745 22.1411 111.171 21.3539 111.302L14.6425 112.421C13.8554 112.552 13.3145 112.287 13.1557 111.334L12.3086 106.252L13.5929 106.038L14.4216 111.01L17.1144 110.561L16.3318 105.866L17.616 105.652L18.3987 110.347L21.1053 109.896L20.2605 104.828L21.5448 104.614Z" fill="white"/>
<path d="M68.2322 97.7678C67.2559 96.7915 67.2559 95.2085 68.2322 94.2322L84.1421 78.3223C85.1184 77.346 86.7014 77.346 87.6777 78.3223C88.654 79.2986 88.654 80.8816 87.6777 81.8579L73.5355 96L87.6777 110.142C88.654 111.118 88.654 112.701 87.6777 113.678C86.7014 114.654 85.1184 114.654 84.1421 113.678L68.2322 97.7678ZM122 96V98.5H70V96V93.5H122V96Z" fill="white"/>
</g>
<defs>
<clipPath id="clip0_1572_14259">
<rect width="191" height="191" fill="white"/>
</clipPath>
</defs>
</svg>
