<svg width="57" height="58" viewBox="0 0 57 58" fill="none" xmlns="http://www.w3.org/2000/svg">
<path fill-rule="evenodd" clip-rule="evenodd" d="M45.1532 43.1847L43.4103 41.4631C43.3713 41.5022 43.3294 41.539 43.2847 41.5735L39.0353 44.8006C38.9907 44.8345 38.944 44.8649 38.8952 44.8919L40.0857 47.033C40.1514 47.1511 40.2418 47.2537 40.3505 47.3338C40.4593 47.414 40.5841 47.4698 40.7163 47.4975C40.8486 47.5253 40.9853 47.5243 41.1171 47.4946C41.2489 47.465 41.3728 47.4073 41.4805 47.3256L45.0606 44.6068C45.1682 44.525 45.257 44.4211 45.321 44.3021C45.385 44.1831 45.4226 44.0517 45.4314 43.9169C45.4402 43.782 45.4199 43.6469 45.3719 43.5205C45.3239 43.3942 45.2493 43.2797 45.1532 43.1847ZM41.9899 36.1574L34.9527 34.0384L37.3327 37.1724L37.6599 36.9239C37.7845 36.8293 37.9415 36.7881 38.0964 36.8092C38.2513 36.8304 38.3915 36.9123 38.4861 37.0368C38.5806 37.1614 38.6219 37.3184 38.6007 37.4733C38.5795 37.6282 38.4976 37.7684 38.3731 37.863L36.7796 39.0731C36.655 39.1677 36.498 39.2089 36.3431 39.1878C36.1882 39.1666 36.048 39.0847 35.9534 38.9602C35.8588 38.8356 35.8176 38.6786 35.8388 38.5237C35.86 38.3688 35.9418 38.2286 36.0664 38.134L36.3936 37.8855L34.0136 34.7516L34.1656 42.0993C34.1699 42.3059 34.2419 42.5055 34.3706 42.6672C34.4994 42.829 34.6777 42.944 34.8781 42.9945L38.3221 43.8615L42.5715 40.6344L42.661 37.0841C42.6661 36.8774 42.6032 36.6748 42.482 36.5074C42.3607 36.3399 42.1878 36.217 41.9899 36.1574Z" fill="#D2D5DB"/>
<rect x="8" y="13.5" width="41" height="19" rx="9.5" fill="#EA2227"/>
<path d="M20.1045 25.5H17.6841V19.727H20.1045C21.5584 19.727 22.4308 20.3684 22.4308 21.3605C22.4308 21.9849 22.1058 22.4125 21.6012 22.6349C22.1143 22.8059 22.4736 23.1651 22.4736 23.8664C22.4736 24.9441 21.5157 25.5 20.1045 25.5ZM19.2663 21.0099V22.0105H20.19C20.6347 22.0105 20.8486 21.8224 20.8486 21.4888C20.8486 21.198 20.6433 21.0099 20.19 21.0099H19.2663ZM19.2663 23.2934V24.2171H20.19C20.6347 24.2171 20.8913 24.0888 20.8913 23.7552C20.8913 23.396 20.6347 23.2934 20.19 23.2934H19.2663Z" fill="#FAFAFA"/>
<path d="M24.6981 25.5H23.1329V19.727H25.5533C26.9217 19.727 27.9652 20.3684 27.9652 21.6428C27.9652 22.4039 27.5375 23.0283 26.8619 23.2421C27.1527 23.4303 27.3408 23.7638 27.5974 24.2855L28.1875 25.5H26.4685L25.9296 24.4138C25.7329 24.0204 25.5106 23.875 24.9974 23.875H24.7066L24.6981 25.5ZM25.5704 21.1809H24.7152L24.7066 22.4724H25.5533C26.0152 22.4724 26.3402 22.2158 26.3402 21.8053C26.3402 21.3691 26.0152 21.1809 25.5704 21.1809Z" fill="#FAFAFA"/>
<path d="M30.2111 25.5H28.7144V20.5737C28.7144 19.9579 29.1934 19.5901 29.698 19.5901C30.0999 19.5901 30.4506 19.727 30.6559 20.052L32.6914 23.2763V19.727H34.1881V24.6533C34.1881 25.2691 33.7092 25.6283 33.2045 25.6283C32.8111 25.6283 32.4519 25.4914 32.2467 25.1664L30.2111 21.9421V25.5Z" fill="#FAFAFA"/>
<path d="M40.4889 22.6349C40.4889 24.3881 39.1889 25.5 37.3415 25.5H35.058V19.727H37.3415C39.2316 19.727 40.4889 20.8816 40.4889 22.6349ZM38.8639 22.6349C38.8639 21.771 38.2652 21.1809 37.3415 21.1809H36.6402V24.0888H37.3415C38.2652 24.0888 38.8639 23.5072 38.8639 22.6349Z" fill="#FAFAFA"/>
</svg>
