<svg width="57" height="57" viewBox="0 0 57 57" fill="none" xmlns="http://www.w3.org/2000/svg">
<g clip-path="url(#clip0_1547_14567)">
<rect x="8" y="13" width="41" height="19" rx="9.5" fill="#EA2227"/>
<path d="M20.104 24.9997H17.6836V19.2267H20.104C21.5579 19.2267 22.4303 19.8681 22.4303 20.8602C22.4303 21.4846 22.1053 21.9122 21.6007 22.1346C22.1139 22.3056 22.4731 22.6648 22.4731 23.3662C22.4731 24.4438 21.5152 24.9997 20.104 24.9997ZM19.2658 20.5096V21.5102H20.1895C20.6343 21.5102 20.8481 21.3221 20.8481 20.9885C20.8481 20.6977 20.6428 20.5096 20.1895 20.5096H19.2658ZM19.2658 22.7931V23.7168H20.1895C20.6343 23.7168 20.8908 23.5885 20.8908 23.255C20.8908 22.8958 20.6343 22.7931 20.1895 22.7931H19.2658Z" fill="#FAFAFA"/>
<path d="M24.6976 24.9997H23.1324V19.2267H25.5528C26.9213 19.2267 27.9647 19.8681 27.9647 21.1425C27.9647 21.9037 27.537 22.528 26.8614 22.7418C27.1522 22.93 27.3403 23.2635 27.5969 23.7852L28.187 24.9997H26.468L25.9292 23.9135C25.7324 23.5201 25.5101 23.3747 24.9969 23.3747H24.7061L24.6976 24.9997ZM25.5699 20.6806H24.7147L24.7061 21.9721H25.5528C26.0147 21.9721 26.3397 21.7155 26.3397 21.305C26.3397 20.8688 26.0147 20.6806 25.5699 20.6806Z" fill="#FAFAFA"/>
<path d="M30.2106 24.9997H28.7139V20.0734C28.7139 19.4576 29.1929 19.0898 29.6975 19.0898C30.0995 19.0898 30.4501 19.2267 30.6554 19.5517L32.6909 22.776V19.2267H34.1876V24.153C34.1876 24.7688 33.7087 25.128 33.2041 25.128C32.8106 25.128 32.4514 24.9912 32.2462 24.6662L30.2106 21.4418V24.9997Z" fill="#FAFAFA"/>
<path d="M40.4884 22.1346C40.4884 23.8879 39.1884 24.9997 37.341 24.9997H35.0575V19.2267H37.341C39.2311 19.2267 40.4884 20.3813 40.4884 22.1346ZM38.8634 22.1346C38.8634 21.2708 38.2647 20.6806 37.341 20.6806H36.6397V23.5885H37.341C38.2647 23.5885 38.8634 23.0069 38.8634 22.1346Z" fill="#FAFAFA"/>
<path fill-rule="evenodd" clip-rule="evenodd" d="M55.7284 28.2593L53.9855 26.5377C53.9465 26.5768 53.9046 26.6136 53.8599 26.6481L49.6105 29.8752C49.5659 29.9091 49.5192 29.9395 49.4704 29.9665L50.6609 32.1076C50.7266 32.2257 50.8169 32.3283 50.9257 32.4084C51.0345 32.4885 51.1593 32.5444 51.2915 32.5721C51.4238 32.5999 51.5605 32.5989 51.6923 32.5692C51.8241 32.5395 51.948 32.4819 52.0557 32.4002L55.6358 29.6814C55.7434 29.5996 55.8322 29.4957 55.8962 29.3767C55.9601 29.2577 55.9978 29.1263 56.0066 28.9914C56.0154 28.8566 55.9951 28.7214 55.9471 28.5951C55.8991 28.4688 55.8245 28.3543 55.7284 28.2593ZM52.5651 21.232L45.5279 19.113L47.9079 22.2469L48.2351 21.9984C48.3596 21.9039 48.5167 21.8626 48.6716 21.8838C48.8265 21.905 48.9667 21.9869 49.0613 22.1114C49.1558 22.236 49.1971 22.393 49.1759 22.5479C49.1547 22.7028 49.0728 22.843 48.9483 22.9376L47.3548 24.1477C47.2302 24.2423 47.0732 24.2835 46.9183 24.2623C46.7634 24.2412 46.6232 24.1593 46.5286 24.0348C46.434 23.9102 46.3928 23.7532 46.414 23.5983C46.4352 23.4434 46.517 23.3032 46.6416 23.2086L46.9688 22.9601L44.5888 19.8262L44.7408 27.1738C44.7451 27.3805 44.8171 27.5801 44.9458 27.7418C45.0746 27.9036 45.2529 28.0186 45.4533 28.0691L48.8973 28.9361L53.1467 25.709L53.2362 22.1587C53.2413 21.952 53.1784 21.7494 53.0572 21.582C52.9359 21.4145 52.763 21.2916 52.5651 21.232Z" fill="#D2D5DB"/>
</g>
<defs>
<clipPath id="clip0_1547_14567">
<rect width="57" height="57" fill="white"/>
</clipPath>
</defs>
</svg>
