<svg width="57" height="57" viewBox="0 0 57 57" fill="none" xmlns="http://www.w3.org/2000/svg">
<g clip-path="url(#clip0_1547_14605)">
<rect x="7.86523" y="14.0938" width="41" height="7" rx="3.5" transform="rotate(-16.8545 7.86523 14.0938)" fill="#D2D5DB"/>
<rect x="8.42383" y="25.8848" width="19" height="8" rx="4" transform="rotate(-51.1232 8.42383 25.8848)" fill="#D2D5DB"/>
<rect x="19.6113" y="20.7275" width="41" height="19" rx="9.5" transform="rotate(41.9678 19.6113 20.7275)" fill="#EA2227"/>
<path fill-rule="evenodd" clip-rule="evenodd" d="M23.9203 36.0502C23.7986 36.0001 23.6648 35.9871 23.5357 36.013C23.4066 36.0388 23.2881 36.1023 23.1951 36.1954C23.102 36.2886 23.0386 36.4071 23.0129 36.5362C22.9871 36.6653 23.0002 36.7991 23.0503 36.9208L27.717 48.2542C27.767 48.3756 27.8517 48.4795 27.9606 48.553C28.0694 48.6264 28.1975 48.6661 28.3288 48.6671C28.4601 48.668 28.5888 48.6301 28.6986 48.5582C28.8085 48.4863 28.8947 48.3835 28.9463 48.2628L30.7363 44.0862C30.8038 43.9289 30.9291 43.8036 31.0863 43.7362L35.263 41.9462C35.3837 41.8945 35.4865 41.8083 35.5584 41.6984C35.6303 41.5886 35.6682 41.4599 35.6672 41.3286C35.6663 41.1973 35.6266 41.0692 35.5532 40.9604C35.4797 40.8515 35.3758 40.7668 35.2543 40.7168L23.9203 36.0502Z" fill="#FAFAFA"/>
</g>
<defs>
<clipPath id="clip0_1547_14605">
<rect width="57" height="57" fill="white"/>
</clipPath>
</defs>
</svg>
