<svg width="57" height="58" viewBox="0 0 57 58" fill="none" xmlns="http://www.w3.org/2000/svg">
<rect x="8" y="8.5" width="41" height="7" rx="3.5" fill="#D2D5DB"/>
<rect x="8" y="17.5" width="19" height="8" rx="4" fill="#D2D5DB"/>
<rect x="8" y="32.5" width="41" height="19" rx="9.5" fill="#EA2227"/>
<path fill-rule="evenodd" clip-rule="evenodd" d="M23.9199 36.55C23.7981 36.4999 23.6643 36.487 23.5352 36.5128C23.4062 36.5387 23.2876 36.6022 23.1946 36.6953C23.1016 36.7884 23.0382 36.907 23.0124 37.0361C22.9866 37.1652 22.9997 37.299 23.0499 37.4207L27.7165 48.754C27.7665 48.8754 27.8512 48.9794 27.9601 49.0528C28.0689 49.1263 28.197 49.166 28.3283 49.1669C28.4596 49.1678 28.5883 49.13 28.6981 49.058C28.808 48.9861 28.8942 48.8834 28.9459 48.7627L30.7359 44.586C30.8033 44.4287 30.9286 44.3034 31.0859 44.236L35.2625 42.446C35.3832 42.3943 35.486 42.3081 35.5579 42.1983C35.6298 42.0884 35.6677 41.9598 35.6668 41.8285C35.6658 41.6971 35.6262 41.569 35.5527 41.4602C35.4792 41.3514 35.3753 41.2666 35.2539 41.2167L23.9199 36.55Z" fill="#FAFAFA"/>
</svg>
