<svg width="57" height="57" viewBox="0 0 57 57" fill="none" xmlns="http://www.w3.org/2000/svg">
<path d="M30.8243 7.99794L13.4777 8.81772L5.65404 24.3215L15.1752 39.0028L32.5218 38.183L40.3455 22.6793L30.8243 7.99794ZM26.4142 28.7653C25.0321 29.6617 23.3469 29.9666 21.7293 29.613C20.1116 29.2594 18.6941 28.2763 17.7885 26.88C16.883 25.4836 16.5635 23.7884 16.9005 22.1672C17.2374 20.5461 18.2032 19.1317 19.5853 18.2354C20.9674 17.3391 22.6527 17.0342 24.2703 17.3877C25.8879 17.7413 27.3054 18.7244 28.211 20.1208C29.1166 21.5171 29.436 23.2123 29.0991 24.8335C28.7621 26.4547 27.7963 27.869 26.4142 28.7653Z" fill="#EA2227"/>
<path fill-rule="evenodd" clip-rule="evenodd" d="M42.8932 27.4715C42.8618 27.2556 42.7673 27.0537 42.6214 26.8914C42.4755 26.7291 42.2848 26.6137 42.0734 26.5596C41.862 26.5055 41.6393 26.5152 41.4334 26.5874C41.2275 26.6597 41.0476 26.7913 40.9164 26.9657L28.689 43.1942C28.5579 43.3681 28.4812 43.5767 28.4683 43.794C28.4554 44.0113 28.507 44.2276 28.6166 44.4157C28.7261 44.6038 28.8888 44.7553 29.0842 44.8513C29.2795 44.9473 29.4989 44.9835 29.7148 44.9553L37.1849 43.9817C37.4662 43.9451 37.7508 44.018 37.9798 44.1854L44.0606 48.6322C44.2363 48.7607 44.446 48.8345 44.6635 48.8444C44.881 48.8542 45.0965 48.7995 45.283 48.6873C45.4696 48.5751 45.6188 48.4103 45.7121 48.2136C45.8053 48.0169 45.8384 47.7971 45.8071 47.5816L42.8932 27.4715Z" fill="#D2D5DB"/>
</svg>
