<svg width="57" height="58" viewBox="0 0 57 58" fill="none" xmlns="http://www.w3.org/2000/svg">
<path d="M38 15.2508L23 6.5L8 15.2508V32.7492L23 41.5L38 32.7492V15.2508ZM23 30.2752C21.3527 30.2752 19.7729 29.6141 18.608 28.4372C17.4432 27.2604 16.7888 25.6643 16.7888 24C16.7888 22.3357 17.4432 20.7396 18.608 19.5628C19.7729 18.3859 21.3527 17.7248 23 17.7248C24.6473 17.7248 26.2271 18.3859 27.392 19.5628C28.5568 20.7396 29.2112 22.3357 29.2112 24C29.2112 25.6643 28.5568 27.2604 27.392 28.4372C26.2271 29.6141 24.6473 30.2752 23 30.2752Z" fill="#EA2227"/>
<path fill-rule="evenodd" clip-rule="evenodd" d="M29.5258 30.5831C29.324 30.5001 29.1021 30.4787 28.8881 30.5215C28.6741 30.5644 28.4777 30.6696 28.3234 30.824C28.1692 30.9784 28.0641 31.175 28.0214 31.389C27.9787 31.603 28.0003 31.8248 28.0835 32.0266L35.8199 50.8155C35.9028 51.0168 36.0433 51.1891 36.2237 51.3109C36.4041 51.4327 36.6165 51.4984 36.8342 51.5C37.0518 51.5015 37.2651 51.4387 37.4473 51.3195C37.6294 51.2003 37.7723 51.0299 37.858 50.8298L40.8254 43.9056C40.9372 43.6449 41.145 43.4371 41.4057 43.3253L48.3298 40.3578C48.5299 40.2721 48.7003 40.1292 48.8195 39.9471C48.9387 39.765 49.0015 39.5517 49 39.334C48.9984 39.1163 48.9327 38.9039 48.8109 38.7235C48.6891 38.5431 48.5168 38.4026 48.3155 38.3197L29.5258 30.5831Z" fill="#D2D5DB"/>
</svg>
