<svg width="57" height="58" viewBox="0 0 57 58" fill="none" xmlns="http://www.w3.org/2000/svg">
<g clip-path="url(#clip0_402_2185)">
<path d="M7.72607 42.131C7.72607 47.2527 11.8781 51.4048 16.9999 51.4048C22.1217 51.4048 26.2737 47.2527 26.2737 42.131V15.7738C26.2737 10.652 22.1217 6.5 16.9999 6.5C11.8781 6.5 7.72607 10.652 7.72607 15.7738V42.131Z" fill="#EA2227"/>
<path d="M9.67871 42.131C9.67871 46.1745 12.9566 49.4524 17.0001 49.4524C21.0437 49.4524 24.3216 46.1745 24.3216 42.131C24.3216 38.0875 21.0437 34.8096 17.0001 34.8096C12.9566 34.8096 9.67871 38.0875 9.67871 42.131Z" fill="#FAFAFA"/>
</g>
<g clip-path="url(#clip1_402_2185)">
<path d="M30.7261 42.131C30.7261 47.2527 34.8781 51.4048 39.9999 51.4048C45.1217 51.4048 49.2737 47.2527 49.2737 42.131V15.7738C49.2737 10.652 45.1217 6.5 39.9999 6.5C34.8781 6.5 30.7261 10.652 30.7261 15.7738V42.131Z" fill="#EA2227"/>
<path d="M30.5 42.131C30.5 47.2527 34.652 51.4048 39.7738 51.4048C44.8956 51.4048 49.0476 47.2527 49.0476 42.131V15.7738C49.0476 10.652 44.8956 6.5 39.7738 6.5C34.652 6.5 30.5 10.652 30.5 15.7738V42.131Z" fill="#D2D5DB"/>
<path d="M32.6787 15.8214C32.6787 19.8649 35.9566 23.1429 40.0001 23.1429C44.0437 23.1429 47.3216 19.8649 47.3216 15.8214C47.3216 11.7779 44.0437 8.5 40.0001 8.5C35.9566 8.5 32.6787 11.7779 32.6787 15.8214Z" fill="#FAFAFA"/>
</g>
<defs>
<clipPath id="clip0_402_2185">
<rect x="7.5" y="6.5" width="19" height="45" rx="9.5" fill="white"/>
</clipPath>
<clipPath id="clip1_402_2185">
<rect x="30.5" y="6.5" width="19" height="45" rx="9.5" fill="white"/>
</clipPath>
</defs>
</svg>
