<svg width="57" height="57" viewBox="0 0 57 57" fill="none" xmlns="http://www.w3.org/2000/svg">
<g clip-path="url(#clip0_1547_14621)">
<path d="M7.72656 41.631C7.72656 46.7527 11.8786 50.9048 17.0004 50.9048C22.1222 50.9048 26.2742 46.7527 26.2742 41.631V15.2738C26.2742 10.152 22.1222 6 17.0004 6C11.8786 6 7.72656 10.152 7.72656 15.2738V41.631Z" fill="#EA2227"/>
<path d="M7.5 41.631C7.5 46.7527 11.652 50.9048 16.7738 50.9048C21.8956 50.9048 26.0476 46.7527 26.0476 41.631V15.2738C26.0476 10.152 21.8956 6 16.7738 6C11.652 6 7.5 10.152 7.5 15.2738V41.631Z" fill="#D2D5DB"/>
<path d="M9.67773 15.3214C9.67773 19.3649 12.9556 22.6429 16.9992 22.6429C21.0427 22.6429 24.3206 19.3649 24.3206 15.3214C24.3206 11.2779 21.0427 8 16.9992 8C12.9556 8 9.67773 11.2779 9.67773 15.3214Z" fill="#FAFAFA"/>
</g>
<g clip-path="url(#clip1_1547_14621)">
<path d="M30.7266 41.631C30.7266 46.7527 34.8786 50.9048 40.0004 50.9048C45.1222 50.9048 49.2742 46.7527 49.2742 41.631V15.2738C49.2742 10.152 45.1222 6 40.0004 6C34.8786 6 30.7266 10.152 30.7266 15.2738V41.631Z" fill="#EA2227"/>
<path d="M32.6777 41.3214C32.6777 45.3649 35.9556 48.6429 39.9992 48.6429C44.0427 48.6429 47.3206 45.3649 47.3206 41.3214C47.3206 37.2779 44.0427 34 39.9992 34C35.9556 34 32.6777 37.2779 32.6777 41.3214Z" fill="#FAFAFA"/>
</g>
<defs>
<clipPath id="clip0_1547_14621">
<rect x="7.5" y="6" width="19" height="45" rx="9.5" fill="white"/>
</clipPath>
<clipPath id="clip1_1547_14621">
<rect x="30.5" y="6" width="19" height="45" rx="9.5" fill="white"/>
</clipPath>
</defs>
</svg>
