<svg width="57" height="57" viewBox="0 0 57 57" fill="none" xmlns="http://www.w3.org/2000/svg">
<path d="M29.7012 25.3991C38.7121 22.7642 44.9504 16.977 43.6323 12.4695C42.3143 7.96199 33.9409 6.44743 24.93 9.08232C15.9191 11.7172 9.68084 17.5044 10.9989 22.0119C12.3169 26.5194 20.6903 28.0339 29.7012 25.3991Z" fill="#EA2227"/>
<path opacity="0.5" d="M16.5469 24.2061L12.3684 35.4551C10.8293 39.5984 16.7181 45.6049 25.5188 48.874C34.3195 52.143 42.7014 51.4376 44.2405 47.2942L48.419 36.0452C46.88 40.1886 38.498 40.894 29.6973 37.6249C20.8966 34.3559 15.0078 28.3494 16.5469 24.2061Z" fill="#D2D5DB"/>
<path d="M10.8594 21.5322L14.3957 33.6258C15.6982 38.0803 24.059 39.5519 33.0699 36.917C42.0809 34.2821 48.3317 28.5379 47.0291 24.0834L43.4928 11.9898C44.7954 16.4443 38.5446 22.1885 29.5336 24.8234C20.5227 27.4583 12.1619 25.9867 10.8594 21.5322Z" fill="#D31F23"/>
</svg>
