<svg width="57" height="57" viewBox="0 0 57 57" fill="none" xmlns="http://www.w3.org/2000/svg">
<g clip-path="url(#clip0_1547_14590)">
<rect x="8" y="13.2285" width="41" height="28.1143" rx="5.54054" fill="#FAFAFA"/>
</g>
<g clip-path="url(#clip1_1547_14590)">
<rect x="8" y="13.1143" width="41" height="28.1143" rx="5.54054" fill="#D2D5DB"/>
</g>
<g clip-path="url(#clip2_1547_14590)">
<rect x="8" y="13" width="41" height="28.1143" rx="5.54054" fill="#EA2227"/>
<path d="M20.82 26.61C20.82 28.73 19.22 30 17.2 30H15.1V23.32H17.27C19.39 23.32 20.82 24.64 20.82 26.61ZM20.16 26.61C20.16 25 18.96 23.92 17.27 23.92H15.74V29.4H17.2C18.82 29.4 20.16 28.37 20.16 26.61ZM23.323 30.1C21.893 30.1 20.823 29.01 20.823 27.56C20.823 26.16 21.793 25.03 23.213 25.03C24.623 25.03 25.543 26.04 25.543 27.42V27.79H21.433C21.533 28.78 22.293 29.51 23.323 29.51C23.983 29.51 24.583 29.26 24.933 28.64L25.413 28.9C24.973 29.7 24.213 30.1 23.323 30.1ZM21.453 27.29H24.923C24.903 26.28 24.193 25.62 23.213 25.62C22.203 25.62 21.543 26.35 21.453 27.29ZM27.4766 30.09C26.6566 30.09 25.9766 29.74 25.6166 29.03L26.1266 28.75C26.4166 29.31 26.8666 29.51 27.4566 29.51C28.1066 29.51 28.6466 29.23 28.6466 28.67C28.6466 27.45 25.7666 28.3 25.7666 26.46C25.7666 25.65 26.5066 25.08 27.4366 25.08C28.2266 25.08 28.8266 25.42 29.1466 26L28.6366 26.29C28.3766 25.8 27.9566 25.66 27.4466 25.66C26.9066 25.66 26.3866 25.95 26.3866 26.45C26.3866 27.63 29.2666 26.82 29.2666 28.66C29.2666 29.54 28.4366 30.09 27.4766 30.09ZM30.1323 23.98C29.8823 23.98 29.6823 23.78 29.6823 23.52C29.6823 23.26 29.8823 23.06 30.1323 23.06C30.3823 23.06 30.5723 23.26 30.5723 23.52C30.5723 23.78 30.3823 23.98 30.1323 23.98ZM29.8223 25.15H30.4423V30H29.8223V25.15ZM33.3695 32.34C32.3895 32.34 31.5195 31.91 31.0795 31.1L31.5995 30.81C31.9495 31.42 32.5995 31.75 33.3595 31.75C34.5395 31.75 35.3595 30.89 35.3595 29.58V28.9C35.0195 29.58 34.2995 30.08 33.3695 30.08C31.9795 30.08 30.8895 28.97 30.8895 27.56C30.8895 26.18 31.9795 25.04 33.4295 25.04C34.8595 25.04 35.9795 26.14 35.9795 27.56V29.6C35.9795 31.26 34.8895 32.34 33.3695 32.34ZM33.4295 29.49C34.4995 29.49 35.3595 28.62 35.3595 27.55C35.3595 26.49 34.4995 25.63 33.4295 25.63C32.3695 25.63 31.5095 26.49 31.5095 27.55C31.5095 28.62 32.3695 29.49 33.4295 29.49ZM38.8873 25.63C37.7873 25.63 37.1973 26.54 37.1973 27.57V30H36.5773V27.52C36.5773 26.12 37.4273 25.04 38.8873 25.04C40.3773 25.04 41.2473 26.11 41.2473 27.51V30H40.6273V27.58C40.6273 26.54 40.0173 25.63 38.8873 25.63Z" fill="white"/>
</g>
<defs>
<clipPath id="clip0_1547_14590">
<rect width="41" height="28.1143" fill="white" transform="translate(8 13.2285)"/>
</clipPath>
<clipPath id="clip1_1547_14590">
<rect width="41" height="28.1143" fill="white" transform="translate(8 13.1143)"/>
</clipPath>
<clipPath id="clip2_1547_14590">
<rect width="41" height="28.1143" fill="white" transform="translate(8 13)"/>
</clipPath>
</defs>
</svg>
