<svg width="57" height="58" viewBox="0 0 57 58" fill="none" xmlns="http://www.w3.org/2000/svg">
<g clip-path="url(#clip0_402_2191)">
<rect x="8" y="22.7285" width="41" height="28.1143" rx="5.54054" fill="#FAFAFA"/>
</g>
<g clip-path="url(#clip1_402_2191)">
<rect x="8" y="14.6143" width="41" height="28.1143" rx="5.54054" fill="#D2D5DB"/>
</g>
<g clip-path="url(#clip2_402_2191)">
<rect x="8" y="6.5" width="41" height="28.1143" rx="5.54054" fill="#EA2227"/>
<path d="M20.82 38.11C20.82 40.23 19.22 41.5 17.2 41.5H15.1V34.82H17.27C19.39 34.82 20.82 36.14 20.82 38.11ZM20.16 38.11C20.16 36.5 18.96 35.42 17.27 35.42H15.74V40.9H17.2C18.82 40.9 20.16 39.87 20.16 38.11ZM23.323 41.6C21.893 41.6 20.823 40.51 20.823 39.06C20.823 37.66 21.793 36.53 23.213 36.53C24.623 36.53 25.543 37.54 25.543 38.92V39.29H21.433C21.533 40.28 22.293 41.01 23.323 41.01C23.983 41.01 24.583 40.76 24.933 40.14L25.413 40.4C24.973 41.2 24.213 41.6 23.323 41.6ZM21.453 38.79H24.923C24.903 37.78 24.193 37.12 23.213 37.12C22.203 37.12 21.543 37.85 21.453 38.79ZM27.4766 41.59C26.6566 41.59 25.9766 41.24 25.6166 40.53L26.1266 40.25C26.4166 40.81 26.8666 41.01 27.4566 41.01C28.1066 41.01 28.6466 40.73 28.6466 40.17C28.6466 38.95 25.7666 39.8 25.7666 37.96C25.7666 37.15 26.5066 36.58 27.4366 36.58C28.2266 36.58 28.8266 36.92 29.1466 37.5L28.6366 37.79C28.3766 37.3 27.9566 37.16 27.4466 37.16C26.9066 37.16 26.3866 37.45 26.3866 37.95C26.3866 39.13 29.2666 38.32 29.2666 40.16C29.2666 41.04 28.4366 41.59 27.4766 41.59ZM30.1323 35.48C29.8823 35.48 29.6823 35.28 29.6823 35.02C29.6823 34.76 29.8823 34.56 30.1323 34.56C30.3823 34.56 30.5723 34.76 30.5723 35.02C30.5723 35.28 30.3823 35.48 30.1323 35.48ZM29.8223 36.65H30.4423V41.5H29.8223V36.65ZM33.3695 43.84C32.3895 43.84 31.5195 43.41 31.0795 42.6L31.5995 42.31C31.9495 42.92 32.5995 43.25 33.3595 43.25C34.5395 43.25 35.3595 42.39 35.3595 41.08V40.4C35.0195 41.08 34.2995 41.58 33.3695 41.58C31.9795 41.58 30.8895 40.47 30.8895 39.06C30.8895 37.68 31.9795 36.54 33.4295 36.54C34.8595 36.54 35.9795 37.64 35.9795 39.06V41.1C35.9795 42.76 34.8895 43.84 33.3695 43.84ZM33.4295 40.99C34.4995 40.99 35.3595 40.12 35.3595 39.05C35.3595 37.99 34.4995 37.13 33.4295 37.13C32.3695 37.13 31.5095 37.99 31.5095 39.05C31.5095 40.12 32.3695 40.99 33.4295 40.99ZM38.8873 37.13C37.7873 37.13 37.1973 38.04 37.1973 39.07V41.5H36.5773V39.02C36.5773 37.62 37.4273 36.54 38.8873 36.54C40.3773 36.54 41.2473 37.61 41.2473 39.01V41.5H40.6273V39.08C40.6273 38.04 40.0173 37.13 38.8873 37.13Z" fill="white"/>
</g>
<defs>
<clipPath id="clip0_402_2191">
<rect width="41" height="28.1143" fill="white" transform="translate(8 22.7285)"/>
</clipPath>
<clipPath id="clip1_402_2191">
<rect width="41" height="28.1143" fill="white" transform="translate(8 14.6143)"/>
</clipPath>
<clipPath id="clip2_402_2191">
<rect width="41" height="28.1143" fill="white" transform="translate(8 6.5)"/>
</clipPath>
</defs>
</svg>
