<svg width="57" height="58" viewBox="0 0 57 58" fill="none" xmlns="http://www.w3.org/2000/svg">
<path d="M29 26C38.3883 26 46 22.1962 46 17.5C46 12.8038 38.3883 9 29 9C19.6117 9 12 12.8038 12 17.5C12 22.1962 19.6117 26 29 26Z" fill="#EA2227"/>
<path opacity="0.5" d="M12 30V42C12 46.42 19.6117 50 29 50C38.3883 50 46 46.42 46 42V30C46 34.42 38.3883 38 29 38C19.6117 38 12 34.42 12 30Z" fill="#D2D5DB"/>
<path d="M12 17V29.6C12 34.241 19.6117 38 29 38C38.3883 38 46 34.241 46 29.6V17C46 21.641 38.3883 25.4 29 25.4C19.6117 25.4 12 21.641 12 17Z" fill="#D31F23"/>
</svg>
